<svg width="316" height="435" viewBox="0 0 316 435" fill="none" xmlns="http://www.w3.org/2000/svg">
<path d="M82.9173 5.03985C85.8241 2.13303 89.7666 0.5 93.8774 0.5H297.25C306.915 0.5 314.75 8.33502 314.75 18V318.373C314.75 322.483 313.117 326.426 310.21 329.333L209.583 429.96C206.676 432.867 202.733 434.5 198.623 434.5H20.25C9.48045 434.5 0.75 425.77 0.75 415V93.6274C0.75 89.5166 2.38303 85.5741 5.28984 82.6673L82.9173 5.03985Z" fill="#222222" stroke="#616161"/>
<g opacity="0.5">
<mask id="mask0_686_572" style="mask-type:alpha" maskUnits="userSpaceOnUse" x="0" y="0" width="316" height="435">
<path d="M82.9173 5.03985C85.8241 2.13303 89.7666 0.5 93.8774 0.5H297.25C306.915 0.5 314.75 8.33502 314.75 18V318.373C314.75 322.483 313.117 326.426 310.21 329.333L209.583 429.96C206.676 432.867 202.733 434.5 198.623 434.5H20.25C9.48045 434.5 0.75 425.77 0.75 415V93.6274C0.75 89.5166 2.38303 85.5741 5.28984 82.6673L82.9173 5.03985Z" fill="#222222" stroke="#333333"/>
</mask>
<g mask="url(#mask0_686_572)">
<path d="M-15.75 9H364.25" stroke="#333333"/>
<path d="M-15.75 24H364.25" stroke="#333333"/>
<path d="M-15.75 39H364.25" stroke="#333333"/>
<path d="M-15.75 54H364.25" stroke="#333333"/>
<path d="M-15.75 69H364.25" stroke="#333333"/>
<path d="M-15.75 84H364.25" stroke="#333333"/>
<path d="M-15.75 99H364.25" stroke="#333333"/>
<path d="M-15.75 114H364.25" stroke="#333333"/>
<path d="M-15.75 129H364.25" stroke="#333333"/>
<path d="M-15.75 144H364.25" stroke="#333333"/>
<path d="M-15.75 159H364.25" stroke="#333333"/>
<path d="M-15.75 174H364.25" stroke="#333333"/>
<path d="M-15.75 189H364.25" stroke="#333333"/>
<path d="M-15.75 204H364.25" stroke="#333333"/>
<path d="M-15.75 219H364.25" stroke="#333333"/>
<path d="M-15.75 234H364.25" stroke="#333333"/>
<path d="M-15.75 249H364.25" stroke="#333333"/>
<path d="M-15.75 264H364.25" stroke="#333333"/>
<path d="M-15.75 279H364.25" stroke="#333333"/>
<path d="M-15.75 294H364.25" stroke="#333333"/>
<path d="M-15.75 309H364.25" stroke="#333333"/>
<path d="M-15.75 324H364.25" stroke="#333333"/>
<path d="M-15.75 339H364.25" stroke="#333333"/>
<path d="M-15.75 354H364.25" stroke="#333333"/>
<path d="M-15.75 369H364.25" stroke="#333333"/>
<path d="M-15.75 384H364.25" stroke="#333333"/>
<path d="M-15.75 399H364.25" stroke="#333333"/>
<path d="M-15.75 414H364.25" stroke="#333333"/>
<path d="M-15.75 429H364.25" stroke="#333333"/>
<path d="M4.25 456L4.24998 -7.00002" stroke="#333333"/>
<path d="M19.25 456L19.25 -7.00002" stroke="#333333"/>
<path d="M34.25 456L34.25 -7.00002" stroke="#333333"/>
<path d="M49.25 456L49.25 -7.00002" stroke="#333333"/>
<path d="M64.25 456L64.25 -7.00002" stroke="#333333"/>
<path d="M79.25 456L79.25 -7.00002" stroke="#333333"/>
<path d="M94.25 456L94.25 -7.00002" stroke="#333333"/>
<path d="M109.25 456L109.25 -7.00002" stroke="#333333"/>
<path d="M124.25 456L124.25 -7.00002" stroke="#333333"/>
<path d="M139.25 456L139.25 -7.00002" stroke="#333333"/>
<path d="M154.25 456L154.25 -7.00002" stroke="#333333"/>
<path d="M169.25 456L169.25 -7.00002" stroke="#333333"/>
<path d="M184.25 456L184.25 -7.00002" stroke="#333333"/>
<path d="M199.25 456L199.25 -7.00002" stroke="#333333"/>
<path d="M214.25 456L214.25 -7.00002" stroke="#333333"/>
<path d="M229.25 456L229.25 -7.00002" stroke="#333333"/>
<path d="M244.25 456L244.25 -7.00002" stroke="#333333"/>
<path d="M259.25 456L259.25 -7.00002" stroke="#333333"/>
<path d="M274.25 456L274.25 -7.00002" stroke="#333333"/>
<path d="M289.25 456L289.25 -7.00002" stroke="#333333"/>
<path d="M304.25 456L304.25 -7.00002" stroke="#333333"/>
</g>
</g>
<path d="M93.8774 0C89.634 0 85.5643 1.68571 82.5637 4.68629L4.93629 82.3137C1.93571 85.3143 0.25 89.3839 0.25 93.6274V415C0.25 426.046 9.20431 435 20.25 435H198.623C202.866 435 206.936 433.314 209.936 430.314L310.564 329.686C313.564 326.686 315.25 322.616 315.25 318.373V18C315.25 8.05887 307.191 0 297.25 0H93.8774Z" fill="url(#paint0_linear_686_572)"/>
<path d="M50.348 354.84V372H47.8V362.068L47.982 357.336H47.956L42.73 372H40.416L35.19 357.336H35.164L35.372 362.068V372H32.798V354.84H36.932L40.39 364.772L41.586 368.854H41.638L42.86 364.772L46.292 354.84H50.348ZM65.3815 370.128C65.6675 370.128 66.0315 370.076 66.2915 369.998L66.1355 371.922C65.7715 372.078 65.2515 372.208 64.6275 372.208C63.2495 372.182 62.1315 371.584 61.8195 370.336C60.9615 371.636 59.2455 372.26 57.6855 372.26C55.2155 372.26 53.3955 371.064 53.3955 368.724C53.3955 366.8 54.7215 365.526 57.0355 365.058L61.6635 364.148V363.654C61.6635 361.938 60.6495 360.924 58.9855 360.924C57.4515 360.924 56.2555 361.6 55.7615 363.238L53.4215 362.25C54.0715 360.144 56.0215 358.74 59.0895 358.74C62.1835 358.74 64.4195 360.248 64.4195 363.368V369.166C64.4195 369.816 64.7575 370.128 65.3815 370.128ZM58.2575 370.102C60.0255 370.102 61.6635 369.27 61.6635 367.19V366.098L58.3875 366.774C56.9055 367.06 56.2035 367.502 56.2035 368.516C56.2035 369.478 57.0095 370.102 58.2575 370.102ZM75.1916 358.74C77.9476 358.74 80.0796 360.326 80.0796 363.576V372H77.2976V364.434C77.2976 361.886 76.1016 361.028 74.5156 361.028C72.7996 361.028 70.9796 362.12 70.9796 365.084V372H68.1976V359H70.6676L70.7976 361.236C71.6556 359.52 73.2936 358.74 75.1916 358.74ZM94.7473 370.128C95.0333 370.128 95.3973 370.076 95.6573 369.998L95.5013 371.922C95.1373 372.078 94.6173 372.208 93.9933 372.208C92.6153 372.182 91.4973 371.584 91.1853 370.336C90.3273 371.636 88.6113 372.26 87.0513 372.26C84.5813 372.26 82.7613 371.064 82.7613 368.724C82.7613 366.8 84.0873 365.526 86.4013 365.058L91.0293 364.148V363.654C91.0293 361.938 90.0153 360.924 88.3513 360.924C86.8173 360.924 85.6213 361.6 85.1273 363.238L82.7873 362.25C83.4373 360.144 85.3873 358.74 88.4553 358.74C91.5493 358.74 93.7853 360.248 93.7853 363.368V369.166C93.7853 369.816 94.1233 370.128 94.7473 370.128ZM87.6233 370.102C89.3913 370.102 91.0293 369.27 91.0293 367.19V366.098L87.7533 366.774C86.2713 367.06 85.5693 367.502 85.5693 368.516C85.5693 369.478 86.3753 370.102 87.6233 370.102ZM109.496 358.428C107.832 358.35 106.87 358.948 106.688 360.066C107.572 360.846 108.066 361.886 108.066 363.134C108.066 365.786 105.83 367.528 102.45 367.528C101.722 367.528 101.072 367.45 100.5 367.32C99.5642 367.606 99.2002 368.126 99.2002 368.698C99.2002 369.556 99.8502 369.972 101.046 369.972H104.946C107.598 369.972 109.106 371.22 109.106 373.248C109.106 376.004 106.324 377.59 102.554 377.59C98.2642 377.59 96.2882 376.108 96.2882 374.132C96.2882 372.962 96.9122 371.948 98.5242 371.584C97.5622 371.168 96.9642 370.44 96.9642 369.27C96.9642 368.126 97.6402 367.19 98.9142 366.748C97.5622 365.994 96.8602 364.72 96.8602 363.134C96.8602 360.482 99.0962 358.74 102.45 358.74C103.542 358.74 104.504 358.922 105.336 359.26C105.596 357.466 107.026 356.218 109.054 356.27L109.496 358.428ZM102.45 365.604C104.062 365.604 105.258 364.616 105.258 363.134C105.258 361.652 104.062 360.69 102.45 360.69C100.864 360.69 99.6682 361.652 99.6682 363.134C99.6682 364.616 100.864 365.604 102.45 365.604ZM104.53 372.26H100.344C99.3562 372.26 98.6282 372.806 98.6282 373.664C98.6282 374.782 100.084 375.51 102.554 375.51C105.414 375.51 106.74 374.626 106.74 373.586C106.74 372.78 106.194 372.26 104.53 372.26ZM122.393 364.72C122.393 365.37 122.341 365.942 122.289 366.332H112.773C113.007 368.75 114.411 370.05 116.543 370.05C118.285 370.05 119.299 369.348 119.923 368.178L122.133 369.218C121.223 371.116 119.169 372.26 116.595 372.26C112.695 372.26 110.043 369.738 110.043 365.5C110.043 361.262 112.695 358.74 116.439 358.74C120.209 358.74 122.393 361.314 122.393 364.72ZM116.387 360.95C114.463 360.95 113.189 362.094 112.825 364.2H119.663C119.533 362.12 118.311 360.95 116.387 360.95ZM143.657 359L137.963 373.534C136.819 376.55 135.493 377.59 133.205 377.59C131.931 377.59 130.865 377.252 130.085 376.68L130.761 374.522C131.411 375.094 132.165 375.354 133.023 375.354C133.959 375.354 134.713 374.99 135.285 373.482L135.857 372.078L134.479 368.854L130.423 359H133.543L136.429 367.164L137.183 369.608L138.041 366.93L140.771 359H143.657ZM150.816 358.74C154.612 358.74 157.264 361.262 157.264 365.5C157.264 369.738 154.612 372.26 150.816 372.26C147.02 372.26 144.342 369.738 144.342 365.5C144.342 361.262 147.02 358.74 150.816 358.74ZM150.816 360.924C148.502 360.924 147.124 362.562 147.124 365.5C147.124 368.438 148.502 370.076 150.816 370.076C153.104 370.076 154.482 368.438 154.482 365.5C154.482 362.562 153.104 360.924 150.816 360.924ZM164.612 372.26C162.038 372.26 159.88 370.934 159.88 367.58V359H162.662V366.878C162.662 369.244 163.702 369.972 165.522 369.972C167.264 369.972 168.928 368.802 168.928 366.046V359H171.71V372H169.266L169.136 369.894C168.252 371.532 166.692 372.26 164.612 372.26ZM175.276 372V359H177.642L177.902 361.34C178.604 359.65 179.956 358.74 181.984 358.74C182.504 358.74 183.05 358.818 183.414 359L183.024 361.444C182.66 361.314 182.244 361.21 181.438 361.21C179.8 361.21 178.058 362.484 178.058 365.11V372H175.276ZM35.112 382.15V397.36C35.112 398.634 35.554 399.05 36.568 399.05C37.218 399.05 37.504 398.998 38.18 398.738L37.868 400.818C37.296 401.104 36.464 401.26 35.71 401.26C33.396 401.26 32.33 400.116 32.33 397.594V382.15H35.112ZM45.3696 387.74C49.1656 387.74 51.8176 390.262 51.8176 394.5C51.8176 398.738 49.1656 401.26 45.3696 401.26C41.5736 401.26 38.8956 398.738 38.8956 394.5C38.8956 390.262 41.5736 387.74 45.3696 387.74ZM45.3696 389.924C43.0556 389.924 41.6776 391.562 41.6776 394.5C41.6776 397.438 43.0556 399.076 45.3696 399.076C47.6576 399.076 49.0356 397.438 49.0356 394.5C49.0356 391.562 47.6576 389.924 45.3696 389.924ZM65.7441 399.128C66.0301 399.128 66.3941 399.076 66.6541 398.998L66.4981 400.922C66.1341 401.078 65.6141 401.208 64.9901 401.208C63.6121 401.182 62.4941 400.584 62.1821 399.336C61.3241 400.636 59.6081 401.26 58.0481 401.26C55.5781 401.26 53.7581 400.064 53.7581 397.724C53.7581 395.8 55.0841 394.526 57.3981 394.058L62.0261 393.148V392.654C62.0261 390.938 61.0121 389.924 59.3481 389.924C57.8141 389.924 56.6181 390.6 56.1241 392.238L53.7841 391.25C54.4341 389.144 56.3841 387.74 59.4521 387.74C62.5461 387.74 64.7821 389.248 64.7821 392.368V398.166C64.7821 398.816 65.1201 399.128 65.7441 399.128ZM58.6201 399.102C60.3881 399.102 62.0261 398.27 62.0261 396.19V395.098L58.7501 395.774C57.2681 396.06 56.5661 396.502 56.5661 397.516C56.5661 398.478 57.3721 399.102 58.6201 399.102ZM75.5542 387.74C78.3102 387.74 80.4422 389.326 80.4422 392.576V401H77.6602V393.434C77.6602 390.886 76.4642 390.028 74.8782 390.028C73.1622 390.028 71.3422 391.12 71.3422 394.084V401H68.5602V388H71.0302L71.1602 390.236C72.0182 388.52 73.6562 387.74 75.5542 387.74ZM88.8178 401.26C86.2438 401.26 83.9558 400.22 82.7078 398.374L84.6318 396.71C85.4118 398.14 86.8678 399.05 88.8698 399.05C90.4558 399.05 91.4698 398.452 91.4698 397.464C91.4698 396.814 91.1318 396.268 89.9098 396.008L87.1798 395.436C84.4238 394.89 83.3318 393.642 83.3318 391.744C83.3318 389.638 85.2818 387.74 88.6878 387.74C91.2618 387.74 93.1598 388.702 94.1218 390.392L92.1978 392.004C91.5218 390.626 90.1178 389.95 88.7398 389.95C87.0498 389.95 86.0878 390.626 86.0878 391.588C86.0878 392.264 86.5038 392.81 87.8818 393.096L90.8458 393.72C93.3418 394.214 94.2518 395.41 94.2518 397.074C94.2518 399.57 92.1718 401.26 88.8178 401.26Z" fill="url(#paint1_radial_686_572)"/>
<rect x="168.394" y="74.3" width="115.557" height="95.725" rx="3.09971" fill="#2E2E2E" stroke="#616161" stroke-width="0.6"/>
<path d="M230.807 146.858L228.824 152.094H228.102L226.111 146.858H226.793L228.126 150.475L228.459 151.515L228.792 150.483L230.125 146.858H230.807ZM232.088 147.366C231.945 147.366 231.828 147.324 231.739 147.239C231.654 147.149 231.612 147.033 231.612 146.89C231.612 146.747 231.654 146.633 231.739 146.549C231.828 146.459 231.945 146.414 232.088 146.414C232.23 146.414 232.344 146.459 232.429 146.549C232.519 146.633 232.564 146.747 232.564 146.89C232.564 147.033 232.519 147.149 232.429 147.239C232.344 147.324 232.23 147.366 232.088 147.366ZM232.405 148.127V152.094H231.77V148.127H232.405ZM235.535 152.173C235.16 152.173 234.824 152.091 234.528 151.927C234.237 151.763 234.01 151.528 233.846 151.221C233.682 150.909 233.6 150.539 233.6 150.111C233.6 149.682 233.682 149.315 233.846 149.008C234.01 148.696 234.234 148.458 234.52 148.294C234.805 148.13 235.131 148.048 235.496 148.048C235.866 148.048 236.18 148.127 236.44 148.286C236.704 148.445 236.905 148.662 237.042 148.937C237.18 149.206 237.249 149.51 237.249 149.849C237.249 149.939 237.246 150.021 237.241 150.095C237.236 150.169 237.228 150.235 237.217 150.293H234.012V149.73H236.939L236.614 149.793C236.614 149.413 236.508 149.119 236.297 148.913C236.091 148.707 235.818 148.603 235.48 148.603C235.221 148.603 234.996 148.664 234.805 148.786C234.62 148.902 234.475 149.074 234.369 149.301C234.269 149.524 234.218 149.793 234.218 150.111C234.218 150.423 234.271 150.692 234.377 150.92C234.483 151.147 234.631 151.322 234.821 151.443C235.017 151.56 235.25 151.618 235.519 151.618C235.81 151.618 236.046 151.562 236.225 151.451C236.411 151.34 236.559 151.189 236.67 150.999L237.169 151.293C237.069 151.472 236.939 151.628 236.781 151.761C236.627 151.893 236.445 151.996 236.233 152.07C236.027 152.139 235.794 152.173 235.535 152.173ZM243.336 148.127H244.042L242.662 152.094H242.028L240.909 148.937L239.854 152.094H239.219L237.839 148.127H238.545L239.545 151.356L240.624 148.127H241.258L242.337 151.356L243.336 148.127ZM248.273 151.499H251.271V152.094H247.638V146.858H248.273V151.499ZM253.786 148.048C254.162 148.048 254.492 148.13 254.778 148.294C255.069 148.458 255.296 148.696 255.46 149.008C255.624 149.315 255.706 149.682 255.706 150.111C255.706 150.539 255.624 150.909 255.46 151.221C255.296 151.528 255.069 151.763 254.778 151.927C254.492 152.091 254.162 152.173 253.786 152.173C253.416 152.173 253.085 152.091 252.795 151.927C252.504 151.763 252.276 151.528 252.112 151.221C251.948 150.909 251.866 150.539 251.866 150.111C251.866 149.682 251.948 149.315 252.112 149.008C252.276 148.696 252.504 148.458 252.795 148.294C253.085 148.13 253.416 148.048 253.786 148.048ZM253.786 148.595C253.516 148.595 253.286 148.656 253.096 148.778C252.906 148.9 252.758 149.074 252.652 149.301C252.551 149.524 252.501 149.793 252.501 150.111C252.501 150.423 252.551 150.692 252.652 150.92C252.758 151.147 252.906 151.322 253.096 151.443C253.286 151.565 253.516 151.626 253.786 151.626C254.056 151.626 254.286 151.565 254.476 151.443C254.667 151.322 254.812 151.147 254.913 150.92C255.018 150.692 255.071 150.423 255.071 150.111C255.071 149.793 255.018 149.524 254.913 149.301C254.812 149.074 254.667 148.9 254.476 148.778C254.286 148.656 254.056 148.595 253.786 148.595ZM259.217 149.532C259.217 149.235 259.138 149.008 258.979 148.849C258.82 148.685 258.596 148.603 258.305 148.603C258.03 148.603 257.797 148.664 257.607 148.786C257.416 148.902 257.276 149.093 257.186 149.357L256.671 149.04C256.776 148.744 256.972 148.506 257.258 148.326C257.543 148.141 257.897 148.048 258.321 148.048C258.606 148.048 258.865 148.098 259.098 148.199C259.331 148.294 259.513 148.442 259.645 148.643C259.783 148.839 259.852 149.093 259.852 149.405V151.324C259.852 151.515 259.952 151.61 260.153 151.61C260.253 151.61 260.351 151.597 260.447 151.57L260.415 152.07C260.309 152.123 260.172 152.149 260.002 152.149C259.849 152.149 259.711 152.12 259.59 152.062C259.468 152.004 259.373 151.917 259.304 151.8C259.235 151.679 259.201 151.528 259.201 151.348V151.269L259.36 151.293C259.296 151.499 259.188 151.668 259.035 151.8C258.881 151.927 258.709 152.022 258.519 152.086C258.328 152.144 258.141 152.173 257.956 152.173C257.723 152.173 257.506 152.133 257.305 152.054C257.104 151.975 256.943 151.856 256.821 151.697C256.705 151.533 256.647 151.332 256.647 151.094C256.647 150.798 256.745 150.555 256.94 150.364C257.141 150.169 257.419 150.037 257.773 149.968L259.344 149.658V150.182L258.067 150.444C257.808 150.497 257.615 150.571 257.488 150.666C257.361 150.761 257.297 150.893 257.297 151.063C257.297 151.226 257.361 151.361 257.488 151.467C257.62 151.568 257.805 151.618 258.043 151.618C258.196 151.618 258.342 151.599 258.479 151.562C258.622 151.52 258.749 151.459 258.86 151.38C258.971 151.295 259.058 151.192 259.122 151.07C259.185 150.944 259.217 150.795 259.217 150.626V149.532ZM261.394 152.094V148.127H261.949L262.005 149.016L261.901 148.929C261.986 148.717 262.1 148.548 262.243 148.421C262.385 148.289 262.549 148.194 262.734 148.135C262.925 148.077 263.12 148.048 263.321 148.048C263.607 148.048 263.866 148.104 264.099 148.215C264.331 148.32 264.517 148.484 264.654 148.707C264.797 148.929 264.868 149.212 264.868 149.555V152.094H264.234V149.777C264.234 149.338 264.138 149.034 263.948 148.865C263.763 148.691 263.533 148.603 263.258 148.603C263.068 148.603 262.877 148.648 262.687 148.738C262.496 148.828 262.338 148.974 262.211 149.175C262.089 149.375 262.028 149.645 262.028 149.984V152.094H261.394ZM267.733 152.173C267.347 152.173 266.99 152.091 266.662 151.927C266.34 151.763 266.091 151.531 265.916 151.229L266.456 150.84C266.572 151.084 266.741 151.274 266.964 151.412C267.191 151.549 267.463 151.618 267.781 151.618C268.061 151.618 268.28 151.565 268.439 151.459C268.598 151.348 268.677 151.205 268.677 151.031C268.677 150.92 268.64 150.819 268.566 150.729C268.497 150.634 268.362 150.565 268.161 150.523L267.209 150.325C266.823 150.245 266.546 150.113 266.377 149.928C266.213 149.743 266.131 149.513 266.131 149.238C266.131 149.021 266.191 148.823 266.313 148.643C266.44 148.463 266.617 148.32 266.845 148.215C267.077 148.104 267.35 148.048 267.662 148.048C268.053 148.048 268.384 148.125 268.653 148.278C268.923 148.432 269.124 148.648 269.256 148.929L268.725 149.278C268.635 149.045 268.489 148.876 268.288 148.77C268.087 148.659 267.878 148.603 267.662 148.603C267.471 148.603 267.307 148.63 267.17 148.683C267.038 148.736 266.934 148.81 266.86 148.905C266.792 148.995 266.757 149.098 266.757 149.214C266.757 149.331 266.797 149.439 266.876 149.539C266.956 149.635 267.104 149.703 267.321 149.746L268.312 149.952C268.682 150.026 268.941 150.148 269.09 150.317C269.238 150.486 269.312 150.692 269.312 150.936C269.312 151.184 269.246 151.404 269.113 151.594C268.981 151.779 268.796 151.922 268.558 152.022C268.32 152.123 268.045 152.173 267.733 152.173Z" fill="#2F80ED"/>
<path d="M225.889 153.085H269.748V153.482H225.889V153.085Z" fill="#2F80ED"/>
<path d="M180.616 150.952H184.741V151.994H179.404V144.515H180.616V150.952ZM187.777 146.215C188.329 146.215 188.816 146.332 189.239 146.566C189.662 146.8 189.991 147.14 190.225 147.586C190.467 148.024 190.588 148.549 190.588 149.161C190.588 149.773 190.467 150.302 190.225 150.748C189.991 151.186 189.662 151.522 189.239 151.756C188.816 151.99 188.329 152.108 187.777 152.108C187.226 152.108 186.738 151.99 186.315 151.756C185.892 151.522 185.56 151.186 185.318 150.748C185.076 150.302 184.955 149.773 184.955 149.161C184.955 148.549 185.076 148.024 185.318 147.586C185.56 147.14 185.892 146.8 186.315 146.566C186.738 146.332 187.226 146.215 187.777 146.215ZM187.777 147.167C187.437 147.167 187.146 147.246 186.905 147.405C186.67 147.556 186.489 147.779 186.361 148.073C186.232 148.368 186.168 148.731 186.168 149.161C186.168 149.584 186.232 149.947 186.361 150.249C186.489 150.544 186.67 150.77 186.905 150.929C187.146 151.08 187.437 151.156 187.777 151.156C188.117 151.156 188.404 151.08 188.638 150.929C188.873 150.77 189.054 150.544 189.182 150.249C189.311 149.947 189.375 149.584 189.375 149.161C189.375 148.731 189.311 148.368 189.182 148.073C189.054 147.779 188.873 147.556 188.638 147.405C188.404 147.246 188.117 147.167 187.777 147.167ZM194.81 148.357C194.81 147.979 194.705 147.688 194.493 147.484C194.289 147.272 194.006 147.167 193.643 147.167C193.303 147.167 193.012 147.246 192.771 147.405C192.529 147.563 192.351 147.82 192.238 148.175L191.218 147.745C191.362 147.284 191.641 146.914 192.057 146.634C192.48 146.355 193.024 146.215 193.689 146.215C194.142 146.215 194.542 146.29 194.89 146.441C195.237 146.585 195.509 146.804 195.706 147.099C195.91 147.393 196.012 147.771 196.012 148.232V150.759C196.012 151.039 196.151 151.178 196.431 151.178C196.567 151.178 196.699 151.159 196.828 151.122L196.76 151.96C196.586 152.043 196.367 152.085 196.102 152.085C195.861 152.085 195.641 152.043 195.445 151.96C195.256 151.87 195.105 151.737 194.992 151.564C194.886 151.382 194.833 151.159 194.833 150.895V150.816L195.082 150.804C195.014 151.099 194.875 151.345 194.663 151.541C194.452 151.73 194.206 151.873 193.926 151.972C193.647 152.062 193.364 152.108 193.077 152.108C192.721 152.108 192.4 152.051 192.113 151.938C191.834 151.824 191.611 151.654 191.445 151.428C191.286 151.193 191.207 150.906 191.207 150.566C191.207 150.143 191.343 149.796 191.615 149.524C191.894 149.252 192.287 149.067 192.793 148.969L194.992 148.538L194.98 149.388L193.383 149.716C193.065 149.777 192.827 149.864 192.669 149.977C192.51 150.09 192.431 150.257 192.431 150.476C192.431 150.687 192.51 150.857 192.669 150.986C192.835 151.107 193.054 151.167 193.326 151.167C193.515 151.167 193.696 151.144 193.87 151.099C194.051 151.054 194.214 150.982 194.357 150.884C194.501 150.778 194.61 150.646 194.686 150.487C194.769 150.321 194.81 150.124 194.81 149.898V148.357ZM197.432 151.994V146.328H198.508L198.588 147.801L198.429 147.643C198.535 147.318 198.686 147.05 198.882 146.838C199.086 146.619 199.324 146.46 199.596 146.362C199.876 146.264 200.17 146.215 200.48 146.215C200.881 146.215 201.239 146.294 201.557 146.453C201.882 146.604 202.138 146.834 202.327 147.144C202.516 147.454 202.611 147.847 202.611 148.323V151.994H201.398V148.697C201.398 148.137 201.281 147.752 201.047 147.541C200.82 147.322 200.533 147.212 200.185 147.212C199.936 147.212 199.694 147.272 199.46 147.393C199.226 147.507 199.03 147.692 198.871 147.949C198.72 148.205 198.644 148.549 198.644 148.98V151.994H197.432ZM206.035 152.108C205.468 152.108 204.95 151.998 204.482 151.779C204.014 151.56 203.643 151.25 203.371 150.85L204.21 150.124C204.376 150.434 204.614 150.683 204.924 150.872C205.241 151.054 205.619 151.144 206.057 151.144C206.405 151.144 206.681 151.084 206.885 150.963C207.088 150.842 207.19 150.672 207.19 150.453C207.19 150.31 207.141 150.185 207.043 150.079C206.953 149.966 206.775 149.879 206.511 149.818L205.321 149.569C204.716 149.448 204.286 149.256 204.029 148.991C203.772 148.719 203.643 148.375 203.643 147.96C203.643 147.65 203.734 147.363 203.915 147.099C204.097 146.834 204.361 146.623 204.709 146.464C205.064 146.298 205.487 146.215 205.978 146.215C206.545 146.215 207.028 146.317 207.428 146.521C207.829 146.717 208.135 147 208.346 147.371L207.508 148.073C207.364 147.771 207.153 147.548 206.873 147.405C206.594 147.254 206.303 147.178 206.001 147.178C205.759 147.178 205.551 147.208 205.377 147.269C205.204 147.329 205.071 147.412 204.981 147.518C204.89 147.624 204.845 147.748 204.845 147.892C204.845 148.043 204.901 148.175 205.015 148.289C205.128 148.402 205.332 148.489 205.627 148.549L206.919 148.821C207.462 148.927 207.844 149.108 208.063 149.365C208.29 149.614 208.403 149.92 208.403 150.283C208.403 150.646 208.309 150.967 208.12 151.246C207.931 151.518 207.659 151.73 207.304 151.881C206.949 152.032 206.526 152.108 206.035 152.108Z" fill="white"/>
<path d="M188.254 135.238C186.146 135.238 184.31 134.773 182.747 133.844C181.205 132.892 180.151 131.566 179.585 129.866L183.121 128.2C183.325 129.016 183.642 129.719 184.072 130.308C184.503 130.897 185.07 131.351 185.772 131.668C186.475 131.963 187.348 132.11 188.39 132.11C189.274 132.11 190.022 131.951 190.634 131.634C191.246 131.317 191.71 130.875 192.028 130.308C192.368 129.741 192.538 129.095 192.538 128.37C192.538 127.622 192.39 126.999 192.096 126.5C191.824 126.002 191.382 125.639 190.77 125.412C190.181 125.186 189.421 125.072 188.492 125.072C188.22 125.072 187.937 125.084 187.642 125.106C187.37 125.106 187.076 125.129 186.758 125.174V122.115C186.962 122.137 187.155 122.16 187.336 122.183C187.54 122.183 187.733 122.183 187.914 122.183C189.387 122.183 190.441 121.888 191.076 121.299C191.71 120.709 192.028 119.792 192.028 118.545C192.028 117.48 191.699 116.664 191.042 116.097C190.407 115.531 189.489 115.247 188.288 115.247C187.042 115.247 186.067 115.542 185.364 116.131C184.684 116.698 184.163 117.525 183.8 118.613L180.469 117.219C180.786 116.177 181.319 115.27 182.067 114.499C182.815 113.729 183.733 113.139 184.82 112.731C185.931 112.301 187.144 112.086 188.458 112.086C190.067 112.086 191.405 112.346 192.47 112.867C193.558 113.389 194.362 114.103 194.884 115.009C195.427 115.916 195.699 116.924 195.699 118.035C195.699 118.896 195.575 119.656 195.326 120.313C195.076 120.947 194.736 121.503 194.306 121.979C193.898 122.432 193.444 122.783 192.946 123.033C192.47 123.282 191.982 123.452 191.484 123.543V123.611C192.141 123.633 192.742 123.769 193.286 124.019C193.852 124.245 194.351 124.574 194.782 125.004C195.235 125.412 195.586 125.911 195.835 126.5C196.085 127.09 196.209 127.736 196.209 128.438C196.209 129.798 195.869 130.988 195.19 132.008C194.51 133.028 193.569 133.821 192.368 134.388C191.189 134.954 189.818 135.238 188.254 135.238Z" fill="white"/>
<path d="M184.15 91.3324H183.125L182.554 89.764H180.043L179.472 91.3324H178.474L180.732 85.3489H181.892L184.15 91.3324ZM180.315 88.9753H182.282L181.303 86.183L180.315 88.9753ZM186.017 84.7596V90.0632C186.017 90.2868 186.057 90.4409 186.135 90.5255C186.214 90.6101 186.344 90.6525 186.525 90.6525C186.634 90.6525 186.725 90.6464 186.797 90.6343C186.876 90.6162 186.972 90.586 187.087 90.5437L186.978 91.2689C186.876 91.3173 186.758 91.3536 186.625 91.3777C186.492 91.4079 186.359 91.4231 186.226 91.4231C185.821 91.4231 185.522 91.3203 185.328 91.1148C185.141 90.9033 185.047 90.5799 185.047 90.1448V84.7596H186.017ZM188.842 84.7596V90.0632C188.842 90.2868 188.881 90.4409 188.96 90.5255C189.038 90.6101 189.168 90.6525 189.349 90.6525C189.458 90.6525 189.549 90.6464 189.621 90.6343C189.7 90.6162 189.797 90.586 189.911 90.5437L189.803 91.2689C189.7 91.3173 189.582 91.3536 189.449 91.3777C189.316 91.4079 189.183 91.4231 189.05 91.4231C188.645 91.4231 188.346 91.3203 188.153 91.1148C187.965 90.9033 187.872 90.5799 187.872 90.1448V84.7596H188.842ZM194.512 90.4983H197.812V91.3324H193.542V85.3489H194.512V90.4983ZM200.694 86.7088C201.135 86.7088 201.525 86.8025 201.863 86.9898C202.202 87.1772 202.465 87.4492 202.652 87.8058C202.845 88.1563 202.942 88.5764 202.942 89.0659C202.942 89.5555 202.845 89.9786 202.652 90.3351C202.465 90.6857 202.202 90.9547 201.863 91.142C201.525 91.3294 201.135 91.4231 200.694 91.4231C200.253 91.4231 199.863 91.3294 199.524 91.142C199.186 90.9547 198.92 90.6857 198.727 90.3351C198.533 89.9786 198.436 89.5555 198.436 89.0659C198.436 88.5764 198.533 88.1563 198.727 87.8058C198.92 87.4492 199.186 87.1772 199.524 86.9898C199.863 86.8025 200.253 86.7088 200.694 86.7088ZM200.694 87.4703C200.422 87.4703 200.189 87.5338 199.996 87.6607C199.808 87.7816 199.663 87.9599 199.561 88.1956C199.458 88.4313 199.406 88.7214 199.406 89.0659C199.406 89.4044 199.458 89.6945 199.561 89.9363C199.663 90.172 199.808 90.3533 199.996 90.4802C200.189 90.6011 200.422 90.6615 200.694 90.6615C200.966 90.6615 201.195 90.6011 201.383 90.4802C201.57 90.3533 201.715 90.172 201.818 89.9363C201.921 89.6945 201.972 89.4044 201.972 89.0659C201.972 88.7214 201.921 88.4313 201.818 88.1956C201.715 87.9599 201.57 87.7816 201.383 87.6607C201.195 87.5338 200.966 87.4703 200.694 87.4703ZM206.774 88.4222C206.774 88.1201 206.689 87.8874 206.52 87.7242C206.357 87.5549 206.13 87.4703 205.84 87.4703C205.568 87.4703 205.335 87.5338 205.142 87.6607C204.948 87.7876 204.806 87.9931 204.716 88.2772L203.9 87.9327C204.015 87.564 204.238 87.2679 204.571 87.0442C204.909 86.8206 205.344 86.7088 205.876 86.7088C206.239 86.7088 206.559 86.7692 206.837 86.8901C207.115 87.0049 207.333 87.1802 207.49 87.4159C207.653 87.6516 207.735 87.9538 207.735 88.3225V90.3442C207.735 90.5678 207.847 90.6797 208.07 90.6797C208.179 90.6797 208.285 90.6645 208.387 90.6343L208.333 91.3052C208.194 91.3717 208.019 91.4049 207.807 91.4049C207.614 91.4049 207.439 91.3717 207.281 91.3052C207.13 91.2327 207.009 91.1269 206.919 90.9879C206.834 90.8428 206.792 90.6645 206.792 90.453V90.3895L206.991 90.3805C206.937 90.6162 206.825 90.8126 206.656 90.9698C206.487 91.1209 206.29 91.2357 206.067 91.3143C205.843 91.3868 205.616 91.4231 205.387 91.4231C205.103 91.4231 204.846 91.3777 204.616 91.2871C204.392 91.1964 204.214 91.0604 204.081 90.8791C203.954 90.6917 203.891 90.4621 203.891 90.1901C203.891 89.8516 204 89.5736 204.217 89.356C204.441 89.1385 204.755 88.9904 205.16 88.9118L206.919 88.5673L206.91 89.2472L205.631 89.5102C205.378 89.5585 205.187 89.628 205.06 89.7187C204.933 89.8093 204.87 89.9423 204.87 90.1176C204.87 90.2868 204.933 90.4228 205.06 90.5255C205.193 90.6222 205.369 90.6706 205.586 90.6706C205.737 90.6706 205.882 90.6525 206.021 90.6162C206.166 90.5799 206.296 90.5225 206.411 90.4439C206.526 90.3593 206.614 90.2536 206.674 90.1266C206.74 89.9937 206.774 89.8365 206.774 89.6552V88.4222ZM209.324 91.3324V86.7995H210.185L210.249 87.978L210.122 87.8511C210.206 87.5912 210.327 87.3766 210.485 87.2074C210.648 87.0321 210.838 86.9052 211.056 86.8267C211.279 86.7481 211.515 86.7088 211.763 86.7088C212.083 86.7088 212.37 86.7723 212.624 86.8992C212.884 87.0201 213.089 87.2044 213.241 87.4522C213.392 87.7 213.467 88.0143 213.467 88.3951V91.3324H212.497V88.6942C212.497 88.247 212.403 87.9387 212.216 87.7695C212.035 87.5942 211.805 87.5066 211.527 87.5066C211.328 87.5066 211.134 87.5549 210.947 87.6516C210.76 87.7423 210.602 87.8904 210.475 88.0959C210.355 88.3014 210.294 88.5764 210.294 88.9209V91.3324H209.324Z" fill="white"/>
<rect x="30.55" y="192.625" width="115.514" height="93.4526" rx="3.18343" fill="#2E2E2E" stroke="#616161" stroke-width="0.6"/>
<rect x="41.4992" y="263.373" width="54.6188" height="15.7713" rx="2.39785" fill="#2E2E2E"/>
<rect x="41.4992" y="263.373" width="54.6188" height="15.7713" rx="2.39785" stroke="#474646" stroke-width="0.435973"/>
<path d="M55.1966 273.258H54.4459L53.4204 271.647H52.5537V273.258H51.9067V269.23H53.5486C54.4092 269.23 54.9586 269.694 54.9586 270.426C54.9586 271.012 54.629 271.397 54.0857 271.543L55.1966 273.258ZM52.5537 269.785V271.104H53.4998C54.0247 271.104 54.2811 270.89 54.2811 270.445C54.2811 269.999 54.0247 269.785 53.4998 269.785H52.5537ZM58.5365 271.549C58.5365 271.702 58.5243 271.836 58.5121 271.928H56.2782C56.3331 272.495 56.6627 272.801 57.1632 272.801C57.5721 272.801 57.8102 272.636 57.9567 272.361L58.4755 272.605C58.2619 273.051 57.7797 273.319 57.1754 273.319C56.2599 273.319 55.6373 272.727 55.6373 271.732C55.6373 270.738 56.2599 270.145 57.1388 270.145C58.0238 270.145 58.5365 270.75 58.5365 271.549ZM57.1266 270.664C56.6749 270.664 56.3758 270.933 56.2904 271.427H57.8956C57.8651 270.939 57.5783 270.664 57.1266 270.664ZM61.0154 270.145C61.76 270.145 62.352 270.731 62.352 271.726C62.352 272.727 61.7478 273.319 60.997 273.319C60.5454 273.319 60.1975 273.087 60.0144 272.758V274.54H59.3613V270.206H59.9411L59.9716 270.774C60.1547 270.402 60.5332 270.145 61.0154 270.145ZM60.8567 272.788C61.3816 272.788 61.699 272.398 61.699 271.732C61.699 271.067 61.3938 270.67 60.8689 270.67C60.3562 270.67 60.0144 271.079 60.0144 271.732C60.0144 272.379 60.344 272.788 60.8567 272.788ZM65.8188 272.819C65.8859 272.819 65.9714 272.807 66.0324 272.788L65.9958 273.24C65.9103 273.277 65.7882 273.307 65.6418 273.307C65.3183 273.301 65.0558 273.161 64.9826 272.868C64.7811 273.173 64.3783 273.319 64.0121 273.319C63.4322 273.319 63.005 273.039 63.005 272.489C63.005 272.038 63.3163 271.738 63.8595 271.629L64.9459 271.415V271.299C64.9459 270.896 64.7079 270.658 64.3173 270.658C63.9572 270.658 63.6764 270.817 63.5604 271.201L63.0111 270.969C63.1637 270.475 63.6215 270.145 64.3417 270.145C65.068 270.145 65.5929 270.499 65.5929 271.232V272.593C65.5929 272.746 65.6723 272.819 65.8188 272.819ZM64.1464 272.813C64.5614 272.813 64.9459 272.617 64.9459 272.129V271.873L64.1769 272.031C63.829 272.099 63.6642 272.202 63.6642 272.44C63.6642 272.666 63.8534 272.813 64.1464 272.813ZM69.1577 270.206L67.821 273.618C67.5524 274.326 67.2411 274.571 66.704 274.571C66.4049 274.571 66.1547 274.491 65.9716 274.357L66.1303 273.85C66.2829 273.985 66.4599 274.046 66.6613 274.046C66.881 274.046 67.058 273.96 67.1923 273.606L67.3266 273.277L67.0031 272.52L66.0509 270.206H66.7834L67.4609 272.123L67.6379 272.697L67.8393 272.068L68.4802 270.206H69.1577ZM72.2953 272.697H74.517V273.258H71.6422V269.23H72.2953V272.697ZM76.4574 270.145C77.3486 270.145 77.9711 270.738 77.9711 271.732C77.9711 272.727 77.3486 273.319 76.4574 273.319C75.5663 273.319 74.9376 272.727 74.9376 271.732C74.9376 270.738 75.5663 270.145 76.4574 270.145ZM76.4574 270.658C75.9142 270.658 75.5907 271.043 75.5907 271.732C75.5907 272.422 75.9142 272.807 76.4574 272.807C76.9945 272.807 77.318 272.422 77.318 271.732C77.318 271.043 76.9945 270.658 76.4574 270.658ZM81.4235 272.819C81.4907 272.819 81.5761 272.807 81.6372 272.788L81.6005 273.24C81.5151 273.277 81.393 273.307 81.2465 273.307C80.923 273.301 80.6606 273.161 80.5873 272.868C80.3859 273.173 79.9831 273.319 79.6169 273.319C79.037 273.319 78.6098 273.039 78.6098 272.489C78.6098 272.038 78.921 271.738 79.4643 271.629L80.5507 271.415V271.299C80.5507 270.896 80.3127 270.658 79.922 270.658C79.5619 270.658 79.2812 270.817 79.1652 271.201L78.6159 270.969C78.7685 270.475 79.2262 270.145 79.9465 270.145C80.6728 270.145 81.1977 270.499 81.1977 271.232V272.593C81.1977 272.746 81.277 272.819 81.4235 272.819ZM79.7511 272.813C80.1662 272.813 80.5507 272.617 80.5507 272.129V271.873L79.7817 272.031C79.4338 272.099 79.269 272.202 79.269 272.44C79.269 272.666 79.4582 272.813 79.7511 272.813ZM83.9096 270.145C84.5566 270.145 85.0571 270.518 85.0571 271.281V273.258H84.404V271.482C84.404 270.884 84.1232 270.683 83.7509 270.683C83.3481 270.683 82.9208 270.939 82.9208 271.635V273.258H82.2677V270.206H82.8476L82.8781 270.731C83.0795 270.329 83.464 270.145 83.9096 270.145Z" fill="white"/>
<path opacity="0.7" d="M43.0272 251.262V247.199C43.0272 247.104 43.0272 247.003 43.0272 246.897C43.0328 246.785 43.0384 246.67 43.0439 246.553C42.8537 246.737 42.6327 246.9 42.3808 247.04C42.129 247.174 41.8716 247.272 41.6086 247.333L41.4323 246.721C41.5331 246.709 41.659 246.673 41.8101 246.612C41.9667 246.544 42.129 246.463 42.2969 246.368C42.4704 246.267 42.6299 246.161 42.7753 246.049C42.9208 245.937 43.0328 245.828 43.1111 245.722H43.6987V251.262H43.0272ZM47.1624 251.346C46.5356 251.346 46.0348 251.102 45.6599 250.615C45.2849 250.129 45.0975 249.421 45.0975 248.492C45.0975 247.563 45.2849 246.855 45.6599 246.368C46.0348 245.881 46.5356 245.638 47.1624 245.638C47.7947 245.638 48.2955 245.881 48.6648 246.368C49.0398 246.855 49.2272 247.563 49.2272 248.492C49.2272 249.421 49.0398 250.129 48.6648 250.615C48.2955 251.102 47.7947 251.346 47.1624 251.346ZM47.1624 250.741C47.4589 250.741 47.708 250.657 47.9094 250.489C48.1165 250.316 48.2703 250.061 48.3711 249.726C48.4774 249.39 48.5305 248.979 48.5305 248.492C48.5305 248.005 48.4774 247.594 48.3711 247.258C48.2703 246.922 48.1165 246.67 47.9094 246.502C47.708 246.329 47.4589 246.242 47.1624 246.242C46.8658 246.242 46.614 246.329 46.4069 246.502C46.2055 246.67 46.0516 246.922 45.9453 247.258C45.8445 247.594 45.7942 248.005 45.7942 248.492C45.7942 248.979 45.8445 249.39 45.9453 249.726C46.0516 250.061 46.2055 250.316 46.4069 250.489C46.614 250.657 46.8658 250.741 47.1624 250.741ZM50.6849 250.254C50.8192 250.254 50.9311 250.291 51.0206 250.364C51.1157 250.431 51.1885 250.526 51.2389 250.649C51.2892 250.766 51.3144 250.906 51.3144 251.069C51.3144 251.253 51.2808 251.435 51.2137 251.614C51.1521 251.793 51.0542 251.958 50.9199 252.109C50.7856 252.261 50.6121 252.386 50.3995 252.487L50.0469 252.16C50.198 252.109 50.3295 252.04 50.4414 251.95C50.559 251.86 50.6541 251.76 50.7268 251.648C50.7996 251.536 50.8471 251.421 50.8695 251.304L50.836 251.287C50.8136 251.304 50.7856 251.318 50.752 251.329C50.7184 251.34 50.6681 251.346 50.6009 251.346C50.5338 251.346 50.4638 251.326 50.3911 251.287C50.3239 251.248 50.2652 251.192 50.2148 251.119C50.1645 251.041 50.1393 250.94 50.1393 250.817C50.1393 250.716 50.1645 250.624 50.2148 250.54C50.2652 250.45 50.3295 250.38 50.4079 250.33C50.4918 250.28 50.5841 250.254 50.6849 250.254ZM54.2036 251.346C53.5769 251.346 53.0761 251.102 52.7012 250.615C52.3262 250.129 52.1388 249.421 52.1388 248.492C52.1388 247.563 52.3262 246.855 52.7012 246.368C53.0761 245.881 53.5769 245.638 54.2036 245.638C54.836 245.638 55.3368 245.881 55.7061 246.368C56.0811 246.855 56.2685 247.563 56.2685 248.492C56.2685 249.421 56.0811 250.129 55.7061 250.615C55.3368 251.102 54.836 251.346 54.2036 251.346ZM54.2036 250.741C54.5002 250.741 54.7492 250.657 54.9507 250.489C55.1577 250.316 55.3116 250.061 55.4123 249.726C55.5187 249.39 55.5718 248.979 55.5718 248.492C55.5718 248.005 55.5187 247.594 55.4123 247.258C55.3116 246.922 55.1577 246.67 54.9507 246.502C54.7492 246.329 54.5002 246.242 54.2036 246.242C53.9071 246.242 53.6552 246.329 53.4482 246.502C53.2467 246.67 53.0929 246.922 52.9865 247.258C52.8858 247.594 52.8355 248.005 52.8355 248.492C52.8355 248.979 52.8858 249.39 52.9865 249.726C53.0929 250.061 53.2467 250.316 53.4482 250.489C53.6552 250.657 53.9071 250.741 54.2036 250.741ZM59.4252 251.346C58.7984 251.346 58.2976 251.102 57.9227 250.615C57.5478 250.129 57.3603 249.421 57.3603 248.492C57.3603 247.563 57.5478 246.855 57.9227 246.368C58.2976 245.881 58.7984 245.638 59.4252 245.638C60.0575 245.638 60.5583 245.881 60.9277 246.368C61.3026 246.855 61.4901 247.563 61.4901 248.492C61.4901 249.421 61.3026 250.129 60.9277 250.615C60.5583 251.102 60.0575 251.346 59.4252 251.346ZM59.4252 250.741C59.7218 250.741 59.9708 250.657 60.1722 250.489C60.3793 250.316 60.5332 250.061 60.6339 249.726C60.7402 249.39 60.7934 248.979 60.7934 248.492C60.7934 248.005 60.7402 247.594 60.6339 247.258C60.5332 246.922 60.3793 246.67 60.1722 246.502C59.9708 246.329 59.7218 246.242 59.4252 246.242C59.1286 246.242 58.8768 246.329 58.6697 246.502C58.4683 246.67 58.3144 246.922 58.2081 247.258C58.1074 247.594 58.057 248.005 58.057 248.492C58.057 248.979 58.1074 249.39 58.2081 249.726C58.3144 250.061 58.4683 250.316 58.6697 250.489C58.8768 250.657 59.1286 250.741 59.4252 250.741ZM64.6467 251.346C64.02 251.346 63.5191 251.102 63.1442 250.615C62.7693 250.129 62.5818 249.421 62.5818 248.492C62.5818 247.563 62.7693 246.855 63.1442 246.368C63.5191 245.881 64.02 245.638 64.6467 245.638C65.279 245.638 65.7799 245.881 66.1492 246.368C66.5241 246.855 66.7116 247.563 66.7116 248.492C66.7116 249.421 66.5241 250.129 66.1492 250.615C65.7799 251.102 65.279 251.346 64.6467 251.346ZM64.6467 250.741C64.9433 250.741 65.1923 250.657 65.3938 250.489C65.6008 250.316 65.7547 250.061 65.8554 249.726C65.9617 249.39 66.0149 248.979 66.0149 248.492C66.0149 248.005 65.9617 247.594 65.8554 247.258C65.7547 246.922 65.6008 246.67 65.3938 246.502C65.1923 246.329 64.9433 246.242 64.6467 246.242C64.3501 246.242 64.0983 246.329 63.8913 246.502C63.6898 246.67 63.5359 246.922 63.4296 247.258C63.3289 247.594 63.2785 248.005 63.2785 248.492C63.2785 248.979 63.3289 249.39 63.4296 249.726C63.5359 250.061 63.6898 250.316 63.8913 250.489C64.0983 250.657 64.3501 250.741 64.6467 250.741ZM68.1692 250.254C68.3315 250.254 68.463 250.305 68.5637 250.406C68.6645 250.506 68.7148 250.638 68.7148 250.8C68.7148 250.962 68.6645 251.094 68.5637 251.195C68.463 251.295 68.3315 251.346 68.1692 251.346C68.0069 251.346 67.8754 251.295 67.7747 251.195C67.674 251.094 67.6236 250.962 67.6236 250.8C67.6236 250.638 67.674 250.506 67.7747 250.406C67.8754 250.305 68.0069 250.254 68.1692 250.254ZM71.688 251.346C71.0613 251.346 70.5604 251.102 70.1855 250.615C69.8106 250.129 69.6231 249.421 69.6231 248.492C69.6231 247.563 69.8106 246.855 70.1855 246.368C70.5604 245.881 71.0613 245.638 71.688 245.638C72.3203 245.638 72.8212 245.881 73.1905 246.368C73.5654 246.855 73.7529 247.563 73.7529 248.492C73.7529 249.421 73.5654 250.129 73.1905 250.615C72.8212 251.102 72.3203 251.346 71.688 251.346ZM71.688 250.741C71.9846 250.741 72.2336 250.657 72.435 250.489C72.6421 250.316 72.796 250.061 72.8967 249.726C73.003 249.39 73.0562 248.979 73.0562 248.492C73.0562 248.005 73.003 247.594 72.8967 247.258C72.796 246.922 72.6421 246.67 72.435 246.502C72.2336 246.329 71.9846 246.242 71.688 246.242C71.3914 246.242 71.1396 246.329 70.9326 246.502C70.7311 246.67 70.5772 246.922 70.4709 247.258C70.3702 247.594 70.3198 248.005 70.3198 248.492C70.3198 248.979 70.3702 249.39 70.4709 249.726C70.5772 250.061 70.7311 250.316 70.9326 250.489C71.1396 250.657 71.3914 250.741 71.688 250.741ZM76.9095 251.346C76.2828 251.346 75.782 251.102 75.407 250.615C75.0321 250.129 74.8447 249.421 74.8447 248.492C74.8447 247.563 75.0321 246.855 75.407 246.368C75.782 245.881 76.2828 245.638 76.9095 245.638C77.5419 245.638 78.0427 245.881 78.412 246.368C78.787 246.855 78.9744 247.563 78.9744 248.492C78.9744 249.421 78.787 250.129 78.412 250.615C78.0427 251.102 77.5419 251.346 76.9095 251.346ZM76.9095 250.741C77.2061 250.741 77.4551 250.657 77.6566 250.489C77.8636 250.316 78.0175 250.061 78.1182 249.726C78.2246 249.39 78.2777 248.979 78.2777 248.492C78.2777 248.005 78.2246 247.594 78.1182 247.258C78.0175 246.922 77.8636 246.67 77.6566 246.502C77.4551 246.329 77.2061 246.242 76.9095 246.242C76.613 246.242 76.3611 246.329 76.1541 246.502C75.9526 246.67 75.7988 246.922 75.6924 247.258C75.5917 247.594 75.5413 248.005 75.5413 248.492C75.5413 248.979 75.5917 249.39 75.6924 249.726C75.7988 250.061 75.9526 250.316 76.1541 250.489C76.3611 250.657 76.613 250.741 76.9095 250.741Z" fill="white"/>
<path opacity="0.7" d="M86.4022 246.145V250.762H85.7097L83.7791 247.67L83.2895 246.803H83.2825L83.3105 247.502V250.762H82.7789V246.145H83.4714L85.3949 249.223L85.8916 250.111H85.8986L85.8706 249.405V246.145H86.4022ZM89.4266 250.832C88.9883 250.832 88.6082 250.736 88.2864 250.545C87.9693 250.349 87.7222 250.074 87.545 249.719C87.3724 249.365 87.2862 248.943 87.2862 248.453C87.2862 247.964 87.3771 247.542 87.559 247.187C87.7455 246.833 88.0043 246.56 88.3354 246.369C88.6665 246.173 89.0465 246.075 89.4756 246.075C89.9326 246.075 90.3033 246.161 90.5877 246.334C90.8769 246.507 91.11 246.772 91.2872 247.131L90.7766 247.411C90.674 247.145 90.5108 246.945 90.287 246.81C90.0678 246.67 89.7973 246.6 89.4756 246.6C89.1631 246.6 88.8857 246.674 88.6432 246.824C88.4054 246.968 88.2165 247.18 88.0766 247.46C87.9414 247.735 87.8737 248.066 87.8737 248.453C87.8737 248.84 87.932 249.174 88.0486 249.454C88.1699 249.729 88.3471 249.941 88.5802 250.09C88.818 250.235 89.1072 250.307 89.4476 250.307C89.6388 250.307 89.816 250.284 89.9792 250.237C90.1471 250.186 90.2916 250.111 90.4129 250.013C90.5388 249.915 90.6367 249.792 90.7067 249.643C90.7766 249.493 90.8116 249.318 90.8116 249.118V248.957H89.3427V248.432H91.3222V250.762H90.8815L90.8535 249.901L90.9725 249.922C90.8512 250.211 90.66 250.435 90.3989 250.594C90.1377 250.752 89.8136 250.832 89.4266 250.832ZM95.9012 246.145V250.762H95.2088L93.2782 247.67L92.7885 246.803H92.7815L92.8095 247.502V250.762H92.2779V246.145H92.9704L94.894 249.223L95.3906 250.111H95.3976L95.3696 249.405V246.145H95.9012Z" fill="white"/>
<path d="M131.559 206.803H122.851C121.548 206.803 120.492 207.859 120.492 209.162V216.419C120.492 217.721 121.548 218.777 122.851 218.777H131.559C132.862 218.777 133.918 217.721 133.918 216.419V209.162C133.918 207.859 132.862 206.803 131.559 206.803Z" fill="white"/>
<path d="M123.395 205.352V207.892" stroke="white" stroke-width="1.08857" stroke-linecap="round"/>
<path d="M131.377 205.352V207.892" stroke="white" stroke-width="1.08857" stroke-linecap="round"/>
<path d="M127.379 210.941C127.71 210.941 127.997 210.992 128.24 211.094C128.487 211.192 128.676 211.335 128.806 211.521C128.941 211.703 129.009 211.925 129.009 212.186C129.009 212.428 128.948 212.638 128.827 212.815C128.711 212.992 128.54 213.128 128.316 213.221V213.228C128.587 213.326 128.799 213.468 128.953 213.655C129.107 213.841 129.184 214.077 129.184 214.361C129.184 214.632 129.109 214.865 128.96 215.061C128.815 215.256 128.608 215.41 128.337 215.522C128.072 215.629 127.752 215.683 127.379 215.683C127.011 215.683 126.691 215.629 126.421 215.522C126.155 215.41 125.948 215.256 125.798 215.061C125.654 214.865 125.581 214.632 125.581 214.361C125.581 214.081 125.658 213.848 125.812 213.662C125.966 213.47 126.181 213.326 126.456 213.228V213.221C126.232 213.132 126.059 212.999 125.938 212.822C125.817 212.64 125.756 212.428 125.756 212.186C125.756 211.925 125.822 211.703 125.952 211.521C126.087 211.335 126.279 211.192 126.526 211.094C126.773 210.992 127.057 210.941 127.379 210.941ZM127.386 211.682C127.167 211.682 126.992 211.736 126.862 211.843C126.731 211.95 126.666 212.099 126.666 212.291C126.666 212.482 126.731 212.631 126.862 212.738C126.992 212.846 127.167 212.899 127.386 212.899C127.601 212.899 127.771 212.846 127.897 212.738C128.027 212.631 128.093 212.482 128.093 212.291C128.093 212.099 128.03 211.95 127.904 211.843C127.778 211.736 127.605 211.682 127.386 211.682ZM127.386 214.935C127.563 214.935 127.715 214.909 127.841 214.858C127.967 214.806 128.062 214.729 128.128 214.627C128.198 214.524 128.233 214.403 128.233 214.263C128.233 214.123 128.198 214.002 128.128 213.899C128.062 213.797 127.964 213.72 127.834 213.669C127.708 213.613 127.559 213.585 127.386 213.585C127.214 213.585 127.062 213.613 126.931 213.669C126.801 213.72 126.701 213.797 126.631 213.899C126.561 214.002 126.526 214.123 126.526 214.263C126.526 214.403 126.561 214.524 126.631 214.627C126.701 214.729 126.799 214.806 126.924 214.858C127.055 214.909 127.209 214.935 127.386 214.935Z" fill="black"/>
<path d="M62.4497 214.603H64.9856V215.244H61.7042V210.646H62.4497V214.603ZM67.2005 211.691C67.5395 211.691 67.8391 211.763 68.0992 211.907C68.3593 212.051 68.5613 212.26 68.7053 212.534C68.854 212.803 68.9283 213.126 68.9283 213.502C68.9283 213.879 68.854 214.204 68.7053 214.478C68.5613 214.747 68.3593 214.954 68.0992 215.098C67.8391 215.242 67.5395 215.314 67.2005 215.314C66.8614 215.314 66.5619 215.242 66.3018 215.098C66.0417 214.954 65.8373 214.747 65.6887 214.478C65.5401 214.204 65.4657 213.879 65.4657 213.502C65.4657 213.126 65.5401 212.803 65.6887 212.534C65.8373 212.26 66.0417 212.051 66.3018 211.907C66.5619 211.763 66.8614 211.691 67.2005 211.691ZM67.2005 212.276C66.9915 212.276 66.8127 212.325 66.664 212.422C66.5201 212.515 66.4086 212.652 66.3296 212.833C66.2507 213.015 66.2112 213.238 66.2112 213.502C66.2112 213.762 66.2507 213.985 66.3296 214.171C66.4086 214.352 66.5201 214.492 66.664 214.589C66.8127 214.682 66.9915 214.728 67.2005 214.728C67.4095 214.728 67.586 214.682 67.73 214.589C67.8739 214.492 67.9854 214.352 68.0644 214.171C68.1433 213.985 68.1828 213.762 68.1828 213.502C68.1828 213.238 68.1433 213.015 68.0644 212.833C67.9854 212.652 67.8739 212.515 67.73 212.422C67.586 212.325 67.4095 212.276 67.2005 212.276ZM71.8727 213.008C71.8727 212.775 71.8077 212.597 71.6776 212.471C71.5522 212.341 71.378 212.276 71.1551 212.276C70.9461 212.276 70.7673 212.325 70.6187 212.422C70.47 212.52 70.3609 212.678 70.2912 212.896L69.6642 212.631C69.7524 212.348 69.9243 212.121 70.1797 211.949C70.4398 211.777 70.7742 211.691 71.183 211.691C71.4616 211.691 71.7078 211.737 71.9215 211.83C72.1351 211.919 72.3023 212.053 72.4231 212.234C72.5485 212.415 72.6112 212.648 72.6112 212.931V214.485C72.6112 214.656 72.6971 214.742 72.869 214.742C72.9526 214.742 73.0338 214.731 73.1128 214.708L73.071 215.223C72.9642 215.274 72.8295 215.3 72.6669 215.3C72.5183 215.3 72.3836 215.274 72.2628 215.223C72.1467 215.167 72.0538 215.086 71.9842 214.979C71.9191 214.868 71.8866 214.731 71.8866 214.568V214.519L72.0399 214.512C71.9981 214.694 71.9122 214.845 71.7821 214.965C71.6521 215.081 71.5011 215.17 71.3293 215.23C71.1574 215.286 70.9833 215.314 70.8068 215.314C70.5885 215.314 70.3911 215.279 70.2146 215.209C70.0427 215.14 69.9057 215.035 69.8035 214.896C69.706 214.752 69.6572 214.575 69.6572 214.366C69.6572 214.106 69.7408 213.892 69.908 213.725C70.0799 213.558 70.3214 213.444 70.6326 213.384L71.9842 213.119L71.9772 213.642L70.9949 213.844C70.7998 213.881 70.6535 213.934 70.556 214.004C70.4584 214.074 70.4096 214.176 70.4096 214.31C70.4096 214.441 70.4584 214.545 70.556 214.624C70.6581 214.698 70.7928 214.735 70.96 214.735C71.0761 214.735 71.1876 214.722 71.2944 214.694C71.4059 214.666 71.5058 214.622 71.594 214.561C71.6823 214.496 71.7496 214.415 71.7961 214.317C71.8471 214.215 71.8727 214.094 71.8727 213.955V213.008ZM73.8326 215.244V211.761H74.4944L74.5432 212.666L74.4456 212.569C74.5107 212.369 74.6036 212.204 74.7243 212.074C74.8497 211.939 74.996 211.842 75.1632 211.781C75.3351 211.721 75.5162 211.691 75.7066 211.691C75.9528 211.691 76.1734 211.74 76.3685 211.837C76.5682 211.93 76.7261 212.072 76.8422 212.262C76.9583 212.453 77.0164 212.694 77.0164 212.987V215.244H76.271V213.217C76.271 212.873 76.199 212.636 76.055 212.506C75.9156 212.371 75.7391 212.304 75.5255 212.304C75.3722 212.304 75.2236 212.341 75.0796 212.415C74.9356 212.485 74.8149 212.599 74.7173 212.757C74.6245 212.915 74.578 213.126 74.578 213.391V215.244H73.8326ZM81.1388 215.244V212.088C81.1388 211.995 81.1388 211.9 81.1388 211.802C81.1434 211.7 81.1481 211.593 81.1527 211.482C80.9948 211.635 80.8137 211.768 80.6093 211.879C80.4096 211.986 80.2029 212.062 79.9892 212.109L79.8499 211.461C79.9474 211.447 80.0612 211.415 80.1913 211.363C80.3213 211.312 80.456 211.247 80.5954 211.168C80.7347 211.089 80.8624 211.006 80.9785 210.918C81.0946 210.825 81.1852 210.734 81.2502 210.646H81.8773V215.244H81.1388Z" fill="white"/>
<circle cx="47.8794" cy="212.276" r="6.59811" fill="#D9D9D9"/>
<path d="M44.9272 239.92C44.0061 239.92 43.2823 239.587 42.7559 238.921C42.2373 238.248 41.9779 237.265 41.9779 235.972C41.9779 234.679 42.2373 233.7 42.7559 233.034C43.2823 232.361 44.0061 232.024 44.9272 232.024C45.8562 232.024 46.5799 232.361 47.0986 233.034C47.625 233.7 47.8882 234.679 47.8882 235.972C47.8882 237.265 47.625 238.248 47.0986 238.921C46.5799 239.587 45.8562 239.92 44.9272 239.92ZM44.9272 238.863C45.2988 238.863 45.6084 238.759 45.8562 238.55C46.1116 238.333 46.3013 238.012 46.4251 237.586C46.5567 237.152 46.6225 236.614 46.6225 235.972C46.6225 235.329 46.5567 234.795 46.4251 234.37C46.3013 233.936 46.1116 233.615 45.8562 233.406C45.6084 233.189 45.2988 233.081 44.9272 233.081C44.5557 233.081 44.2422 233.189 43.9867 233.406C43.739 233.615 43.5532 233.936 43.4294 234.37C43.3055 234.795 43.2436 235.329 43.2436 235.972C43.2436 236.614 43.3055 237.152 43.4294 237.586C43.5532 238.012 43.739 238.333 43.9867 238.55C44.2422 238.759 44.5557 238.863 44.9272 238.863ZM49.9251 238.236C50.1882 238.236 50.3972 238.314 50.5521 238.468C50.7146 238.615 50.7959 238.817 50.7959 239.072C50.7959 239.328 50.7146 239.533 50.5521 239.688C50.3972 239.842 50.1882 239.92 49.9251 239.92C49.6541 239.92 49.4374 239.842 49.2748 239.688C49.12 239.533 49.0426 239.328 49.0426 239.072C49.0426 238.817 49.12 238.615 49.2748 238.468C49.4374 238.314 49.6541 238.236 49.9251 238.236ZM52.551 239.804V234.544C52.551 234.389 52.551 234.23 52.551 234.068C52.5588 233.897 52.5665 233.719 52.5743 233.534C52.3111 233.789 52.0092 234.01 51.6686 234.195C51.3357 234.373 50.9912 234.501 50.6352 234.579L50.4029 233.499C50.5655 233.475 50.7551 233.421 50.9719 233.336C51.1886 233.251 51.4131 233.143 51.6454 233.011C51.8776 232.879 52.0905 232.74 52.284 232.593C52.4775 232.438 52.6285 232.287 52.7368 232.14H53.7819V239.804H52.551ZM55.6785 239.804V238.898C56.4139 238.372 57.0293 237.907 57.5247 237.505C58.0279 237.102 58.4304 236.731 58.7323 236.39C59.0342 236.049 59.251 235.728 59.3826 235.426C59.5219 235.117 59.5916 234.803 59.5916 234.486C59.5916 234.075 59.4638 233.743 59.2084 233.487C58.9529 233.232 58.5969 233.104 58.1401 233.104C57.6602 233.104 57.277 233.266 56.9906 233.592C56.7119 233.909 56.5532 234.346 56.5145 234.904L55.4347 234.404C55.4889 233.917 55.6321 233.495 55.8643 233.139C56.0965 232.783 56.41 232.508 56.8048 232.314C57.2074 232.121 57.6718 232.024 58.1982 232.024C58.6317 232.024 59.011 232.086 59.3361 232.21C59.669 232.334 59.9476 232.508 60.1721 232.732C60.3966 232.949 60.5669 233.205 60.683 233.499C60.8069 233.793 60.8688 234.106 60.8688 234.439C60.8688 234.927 60.7488 235.399 60.5089 235.856C60.2689 236.305 59.8896 236.765 59.3709 237.238C58.8523 237.71 58.1711 238.217 57.3273 238.759V238.782C57.4202 238.766 57.548 238.759 57.7105 238.759C57.8731 238.751 58.0356 238.747 58.1982 238.747C58.3608 238.739 58.4923 238.735 58.593 238.735H61.0082V239.804H55.6785ZM65.0131 239.92C64.3319 239.92 63.7707 239.773 63.3294 239.479C62.896 239.184 62.5515 238.759 62.296 238.201L63.4572 237.598C63.5733 237.969 63.7475 238.275 63.9797 238.515C64.2197 238.747 64.5719 238.863 65.0363 238.863C65.3614 238.863 65.6362 238.805 65.8607 238.689C66.093 238.565 66.271 238.395 66.3949 238.178C66.5187 237.954 66.5806 237.687 66.5806 237.377C66.5806 237.052 66.5226 236.781 66.4065 236.564C66.2904 236.347 66.1239 236.185 65.9072 236.076C65.6904 235.96 65.4195 235.902 65.0944 235.902C64.8699 235.902 64.6609 235.925 64.4674 235.972C64.2738 236.018 64.0997 236.092 63.9449 236.193C63.79 236.285 63.6546 236.409 63.5385 236.564L62.5166 236.367L62.9811 232.14H67.4399V233.208H63.9681L63.6894 235.368L63.6662 235.496H63.6894C63.8674 235.302 64.0958 235.151 64.3745 235.043C64.6609 234.935 64.9976 234.88 65.3847 234.88C65.8801 234.88 66.3058 234.985 66.6619 235.194C67.018 235.395 67.2967 235.678 67.4979 236.042C67.6992 236.405 67.7998 236.827 67.7998 237.307C67.7998 237.725 67.7302 238.097 67.5908 238.422C67.4515 238.747 67.2541 239.022 66.9987 239.246C66.7432 239.471 66.4452 239.641 66.1046 239.757C65.7717 239.866 65.4079 239.92 65.0131 239.92ZM72.6886 239.804V237.888H68.9497V237.04C68.9652 237.001 68.9884 236.955 69.0194 236.901C69.0581 236.847 69.1007 236.785 69.1471 236.715L72.3403 232.14H73.8614V236.924H75.1619V237.888H73.8614V239.804H72.6886ZM70.1109 236.924H72.6886V234.219C72.6886 234.033 72.6925 233.843 72.7002 233.65C72.7157 233.448 72.7273 233.251 72.7351 233.057H72.7118C72.6267 233.243 72.5144 233.448 72.3751 233.673C72.2435 233.89 72.1197 234.079 72.0035 234.242L70.1922 236.82C70.1767 236.835 70.1612 236.851 70.1457 236.866C70.138 236.882 70.1264 236.901 70.1109 236.924ZM78.9944 239.92C78.3132 239.92 77.752 239.773 77.3108 239.479C76.8773 239.184 76.5328 238.759 76.2774 238.201L77.4385 237.598C77.5546 237.969 77.7288 238.275 77.961 238.515C78.201 238.747 78.5532 238.863 79.0177 238.863C79.3428 238.863 79.6176 238.805 79.8421 238.689C80.0743 238.565 80.2523 238.395 80.3762 238.178C80.5001 237.954 80.562 237.687 80.562 237.377C80.562 237.052 80.5039 236.781 80.3878 236.564C80.2717 236.347 80.1053 236.185 79.8885 236.076C79.6718 235.96 79.4008 235.902 79.0757 235.902C78.8512 235.902 78.6422 235.925 78.4487 235.972C78.2552 236.018 78.081 236.092 77.9262 236.193C77.7714 236.285 77.6359 236.409 77.5198 236.564L76.498 236.367L76.9624 232.14H81.4212V233.208H77.9494L77.6707 235.368L77.6475 235.496H77.6707C77.8488 235.302 78.0771 235.151 78.3558 235.043C78.6422 234.935 78.979 234.88 79.366 234.88C79.8614 234.88 80.2872 234.985 80.6433 235.194C80.9993 235.395 81.278 235.678 81.4793 236.042C81.6806 236.405 81.7812 236.827 81.7812 237.307C81.7812 237.725 81.7115 238.097 81.5722 238.422C81.4328 238.747 81.2354 239.022 80.98 239.246C80.7245 239.471 80.4265 239.641 80.0859 239.757C79.7531 239.866 79.3892 239.92 78.9944 239.92ZM86.67 239.804V237.888H82.9311V237.04C82.9466 237.001 82.9698 236.955 83.0007 236.901C83.0394 236.847 83.082 236.785 83.1285 236.715L86.3216 232.14H87.8427V236.924H89.1432V237.888H87.8427V239.804H86.67ZM84.0922 236.924H86.67V234.219C86.67 234.033 86.6738 233.843 86.6816 233.65C86.697 233.448 86.7087 233.251 86.7164 233.057H86.6932C86.608 233.243 86.4958 233.448 86.3564 233.673C86.2249 233.89 86.101 234.079 85.9849 234.242L84.1735 236.82C84.158 236.835 84.1425 236.851 84.1271 236.866C84.1193 236.882 84.1077 236.901 84.0922 236.924Z" fill="white"/>
<rect x="168.663" y="192.625" width="115.514" height="93.4526" rx="3.18343" fill="#2E2E2E" stroke="#616161" stroke-width="0.6"/>
<rect x="179.613" y="263.373" width="54.6188" height="15.7713" rx="2.39785" fill="#2E2E2E"/>
<rect x="179.613" y="263.373" width="54.6188" height="15.7713" rx="2.39785" stroke="#474646" stroke-width="0.435973"/>
<path d="M193.31 273.258H192.559L191.534 271.647H190.667V273.258H190.02V269.23H191.662C192.523 269.23 193.072 269.694 193.072 270.426C193.072 271.012 192.742 271.397 192.199 271.543L193.31 273.258ZM190.667 269.785V271.104H191.613C192.138 271.104 192.394 270.89 192.394 270.445C192.394 269.999 192.138 269.785 191.613 269.785H190.667ZM196.65 271.549C196.65 271.702 196.638 271.836 196.625 271.928H194.391C194.446 272.495 194.776 272.801 195.276 272.801C195.685 272.801 195.923 272.636 196.07 272.361L196.589 272.605C196.375 273.051 195.893 273.319 195.289 273.319C194.373 273.319 193.751 272.727 193.751 271.732C193.751 270.738 194.373 270.145 195.252 270.145C196.137 270.145 196.65 270.75 196.65 271.549ZM195.24 270.664C194.788 270.664 194.489 270.933 194.404 271.427H196.009C195.978 270.939 195.692 270.664 195.24 270.664ZM199.129 270.145C199.873 270.145 200.465 270.731 200.465 271.726C200.465 272.727 199.861 273.319 199.11 273.319C198.659 273.319 198.311 273.087 198.128 272.758V274.54H197.475V270.206H198.054L198.085 270.774C198.268 270.402 198.646 270.145 199.129 270.145ZM198.97 272.788C199.495 272.788 199.812 272.398 199.812 271.732C199.812 271.067 199.507 270.67 198.982 270.67C198.469 270.67 198.128 271.079 198.128 271.732C198.128 272.379 198.457 272.788 198.97 272.788ZM203.932 272.819C203.999 272.819 204.085 272.807 204.146 272.788L204.109 273.24C204.024 273.277 203.902 273.307 203.755 273.307C203.432 273.301 203.169 273.161 203.096 272.868C202.894 273.173 202.492 273.319 202.125 273.319C201.546 273.319 201.118 273.039 201.118 272.489C201.118 272.038 201.43 271.738 201.973 271.629L203.059 271.415V271.299C203.059 270.896 202.821 270.658 202.431 270.658C202.07 270.658 201.79 270.817 201.674 271.201L201.124 270.969C201.277 270.475 201.735 270.145 202.455 270.145C203.181 270.145 203.706 270.499 203.706 271.232V272.593C203.706 272.746 203.786 272.819 203.932 272.819ZM202.26 272.813C202.675 272.813 203.059 272.617 203.059 272.129V271.873L202.29 272.031C201.942 272.099 201.777 272.202 201.777 272.44C201.777 272.666 201.967 272.813 202.26 272.813ZM207.271 270.206L205.934 273.618C205.666 274.326 205.354 274.571 204.817 274.571C204.518 274.571 204.268 274.491 204.085 274.357L204.244 273.85C204.396 273.985 204.573 274.046 204.775 274.046C204.994 274.046 205.171 273.96 205.306 273.606L205.44 273.277L205.116 272.52L204.164 270.206H204.897L205.574 272.123L205.751 272.697L205.953 272.068L206.593 270.206H207.271ZM210.409 272.697H212.63V273.258H209.755V269.23H210.409V272.697ZM214.571 270.145C215.462 270.145 216.084 270.738 216.084 271.732C216.084 272.727 215.462 273.319 214.571 273.319C213.68 273.319 213.051 272.727 213.051 271.732C213.051 270.738 213.68 270.145 214.571 270.145ZM214.571 270.658C214.027 270.658 213.704 271.043 213.704 271.732C213.704 272.422 214.027 272.807 214.571 272.807C215.108 272.807 215.431 272.422 215.431 271.732C215.431 271.043 215.108 270.658 214.571 270.658ZM219.537 272.819C219.604 272.819 219.689 272.807 219.75 272.788L219.714 273.24C219.628 273.277 219.506 273.307 219.36 273.307C219.036 273.301 218.774 273.161 218.701 272.868C218.499 273.173 218.096 273.319 217.73 273.319C217.15 273.319 216.723 273.039 216.723 272.489C216.723 272.038 217.034 271.738 217.578 271.629L218.664 271.415V271.299C218.664 270.896 218.426 270.658 218.035 270.658C217.675 270.658 217.394 270.817 217.278 271.201L216.729 270.969C216.882 270.475 217.34 270.145 218.06 270.145C218.786 270.145 219.311 270.499 219.311 271.232V272.593C219.311 272.746 219.39 272.819 219.537 272.819ZM217.864 272.813C218.279 272.813 218.664 272.617 218.664 272.129V271.873L217.895 272.031C217.547 272.099 217.382 272.202 217.382 272.44C217.382 272.666 217.571 272.813 217.864 272.813ZM222.023 270.145C222.67 270.145 223.17 270.518 223.17 271.281V273.258H222.517V271.482C222.517 270.884 222.237 270.683 221.864 270.683C221.461 270.683 221.034 270.939 221.034 271.635V273.258H220.381V270.206H220.961L220.991 270.731C221.193 270.329 221.577 270.145 222.023 270.145Z" fill="white"/>
<path opacity="0.7" d="M181.14 251.262V247.199C181.14 247.104 181.14 247.003 181.14 246.897C181.146 246.785 181.152 246.67 181.157 246.553C180.967 246.737 180.746 246.9 180.494 247.04C180.242 247.174 179.985 247.272 179.722 247.333L179.546 246.721C179.646 246.709 179.772 246.673 179.923 246.612C180.08 246.544 180.242 246.463 180.41 246.368C180.584 246.267 180.743 246.161 180.889 246.049C181.034 245.937 181.146 245.828 181.224 245.722H181.812V251.262H181.14ZM185.276 251.346C184.649 251.346 184.148 251.102 183.773 250.615C183.398 250.129 183.211 249.421 183.211 248.492C183.211 247.563 183.398 246.855 183.773 246.368C184.148 245.881 184.649 245.638 185.276 245.638C185.908 245.638 186.409 245.881 186.778 246.368C187.153 246.855 187.341 247.563 187.341 248.492C187.341 249.421 187.153 250.129 186.778 250.615C186.409 251.102 185.908 251.346 185.276 251.346ZM185.276 250.741C185.572 250.741 185.821 250.657 186.023 250.489C186.23 250.316 186.384 250.061 186.484 249.726C186.591 249.39 186.644 248.979 186.644 248.492C186.644 248.005 186.591 247.594 186.484 247.258C186.384 246.922 186.23 246.67 186.023 246.502C185.821 246.329 185.572 246.242 185.276 246.242C184.979 246.242 184.727 246.329 184.52 246.502C184.319 246.67 184.165 246.922 184.059 247.258C183.958 247.594 183.907 248.005 183.907 248.492C183.907 248.979 183.958 249.39 184.059 249.726C184.165 250.061 184.319 250.316 184.52 250.489C184.727 250.657 184.979 250.741 185.276 250.741ZM188.798 250.254C188.932 250.254 189.044 250.291 189.134 250.364C189.229 250.431 189.302 250.526 189.352 250.649C189.403 250.766 189.428 250.906 189.428 251.069C189.428 251.253 189.394 251.435 189.327 251.614C189.265 251.793 189.167 251.958 189.033 252.109C188.899 252.261 188.725 252.386 188.513 252.487L188.16 252.16C188.311 252.109 188.443 252.04 188.555 251.95C188.672 251.86 188.767 251.76 188.84 251.648C188.913 251.536 188.96 251.421 188.983 251.304L188.949 251.287C188.927 251.304 188.899 251.318 188.865 251.329C188.832 251.34 188.781 251.346 188.714 251.346C188.647 251.346 188.577 251.326 188.504 251.287C188.437 251.248 188.378 251.192 188.328 251.119C188.278 251.041 188.253 250.94 188.253 250.817C188.253 250.716 188.278 250.624 188.328 250.54C188.378 250.45 188.443 250.38 188.521 250.33C188.605 250.28 188.697 250.254 188.798 250.254ZM192.317 251.346C191.69 251.346 191.189 251.102 190.814 250.615C190.44 250.129 190.252 249.421 190.252 248.492C190.252 247.563 190.44 246.855 190.814 246.368C191.189 245.881 191.69 245.638 192.317 245.638C192.949 245.638 193.45 245.881 193.819 246.368C194.194 246.855 194.382 247.563 194.382 248.492C194.382 249.421 194.194 250.129 193.819 250.615C193.45 251.102 192.949 251.346 192.317 251.346ZM192.317 250.741C192.614 250.741 192.863 250.657 193.064 250.489C193.271 250.316 193.425 250.061 193.526 249.726C193.632 249.39 193.685 248.979 193.685 248.492C193.685 248.005 193.632 247.594 193.526 247.258C193.425 246.922 193.271 246.67 193.064 246.502C192.863 246.329 192.614 246.242 192.317 246.242C192.02 246.242 191.769 246.329 191.561 246.502C191.36 246.67 191.206 246.922 191.1 247.258C190.999 247.594 190.949 248.005 190.949 248.492C190.949 248.979 190.999 249.39 191.1 249.726C191.206 250.061 191.36 250.316 191.561 250.489C191.769 250.657 192.02 250.741 192.317 250.741ZM197.538 251.346C196.912 251.346 196.411 251.102 196.036 250.615C195.661 250.129 195.474 249.421 195.474 248.492C195.474 247.563 195.661 246.855 196.036 246.368C196.411 245.881 196.912 245.638 197.538 245.638C198.171 245.638 198.672 245.881 199.041 246.368C199.416 246.855 199.603 247.563 199.603 248.492C199.603 249.421 199.416 250.129 199.041 250.615C198.672 251.102 198.171 251.346 197.538 251.346ZM197.538 250.741C197.835 250.741 198.084 250.657 198.286 250.489C198.493 250.316 198.646 250.061 198.747 249.726C198.853 249.39 198.907 248.979 198.907 248.492C198.907 248.005 198.853 247.594 198.747 247.258C198.646 246.922 198.493 246.67 198.286 246.502C198.084 246.329 197.835 246.242 197.538 246.242C197.242 246.242 196.99 246.329 196.783 246.502C196.582 246.67 196.428 246.922 196.321 247.258C196.221 247.594 196.17 248.005 196.17 248.492C196.17 248.979 196.221 249.39 196.321 249.726C196.428 250.061 196.582 250.316 196.783 250.489C196.99 250.657 197.242 250.741 197.538 250.741ZM202.76 251.346C202.133 251.346 201.632 251.102 201.258 250.615C200.883 250.129 200.695 249.421 200.695 248.492C200.695 247.563 200.883 246.855 201.258 246.368C201.632 245.881 202.133 245.638 202.76 245.638C203.392 245.638 203.893 245.881 204.262 246.368C204.637 246.855 204.825 247.563 204.825 248.492C204.825 249.421 204.637 250.129 204.262 250.615C203.893 251.102 203.392 251.346 202.76 251.346ZM202.76 250.741C203.057 250.741 203.306 250.657 203.507 250.489C203.714 250.316 203.868 250.061 203.969 249.726C204.075 249.39 204.128 248.979 204.128 248.492C204.128 248.005 204.075 247.594 203.969 247.258C203.868 246.922 203.714 246.67 203.507 246.502C203.306 246.329 203.057 246.242 202.76 246.242C202.463 246.242 202.212 246.329 202.005 246.502C201.803 246.67 201.649 246.922 201.543 247.258C201.442 247.594 201.392 248.005 201.392 248.492C201.392 248.979 201.442 249.39 201.543 249.726C201.649 250.061 201.803 250.316 202.005 250.489C202.212 250.657 202.463 250.741 202.76 250.741ZM206.283 250.254C206.445 250.254 206.576 250.305 206.677 250.406C206.778 250.506 206.828 250.638 206.828 250.8C206.828 250.962 206.778 251.094 206.677 251.195C206.576 251.295 206.445 251.346 206.283 251.346C206.12 251.346 205.989 251.295 205.888 251.195C205.787 251.094 205.737 250.962 205.737 250.8C205.737 250.638 205.787 250.506 205.888 250.406C205.989 250.305 206.12 250.254 206.283 250.254ZM209.801 251.346C209.175 251.346 208.674 251.102 208.299 250.615C207.924 250.129 207.736 249.421 207.736 248.492C207.736 247.563 207.924 246.855 208.299 246.368C208.674 245.881 209.175 245.638 209.801 245.638C210.434 245.638 210.934 245.881 211.304 246.368C211.679 246.855 211.866 247.563 211.866 248.492C211.866 249.421 211.679 250.129 211.304 250.615C210.934 251.102 210.434 251.346 209.801 251.346ZM209.801 250.741C210.098 250.741 210.347 250.657 210.548 250.489C210.755 250.316 210.909 250.061 211.01 249.726C211.116 249.39 211.169 248.979 211.169 248.492C211.169 248.005 211.116 247.594 211.01 247.258C210.909 246.922 210.755 246.67 210.548 246.502C210.347 246.329 210.098 246.242 209.801 246.242C209.505 246.242 209.253 246.329 209.046 246.502C208.844 246.67 208.691 246.922 208.584 247.258C208.483 247.594 208.433 248.005 208.433 248.492C208.433 248.979 208.483 249.39 208.584 249.726C208.691 250.061 208.844 250.316 209.046 250.489C209.253 250.657 209.505 250.741 209.801 250.741ZM215.023 251.346C214.396 251.346 213.895 251.102 213.52 250.615C213.145 250.129 212.958 249.421 212.958 248.492C212.958 247.563 213.145 246.855 213.52 246.368C213.895 245.881 214.396 245.638 215.023 245.638C215.655 245.638 216.156 245.881 216.525 246.368C216.9 246.855 217.088 247.563 217.088 248.492C217.088 249.421 216.9 250.129 216.525 250.615C216.156 251.102 215.655 251.346 215.023 251.346ZM215.023 250.741C215.319 250.741 215.568 250.657 215.77 250.489C215.977 250.316 216.131 250.061 216.232 249.726C216.338 249.39 216.391 248.979 216.391 248.492C216.391 248.005 216.338 247.594 216.232 247.258C216.131 246.922 215.977 246.67 215.77 246.502C215.568 246.329 215.319 246.242 215.023 246.242C214.726 246.242 214.474 246.329 214.267 246.502C214.066 246.67 213.912 246.922 213.806 247.258C213.705 247.594 213.655 248.005 213.655 248.492C213.655 248.979 213.705 249.39 213.806 249.726C213.912 250.061 214.066 250.316 214.267 250.489C214.474 250.657 214.726 250.741 215.023 250.741Z" fill="white"/>
<path opacity="0.7" d="M224.515 246.145V250.762H223.823L221.892 247.67L221.403 246.803H221.396L221.424 247.502V250.762H220.892V246.145H221.585L223.508 249.223L224.005 250.111H224.012L223.984 249.405V246.145H224.515ZM227.54 250.832C227.102 250.832 226.721 250.736 226.4 250.545C226.083 250.349 225.835 250.074 225.658 249.719C225.486 249.365 225.399 248.943 225.399 248.453C225.399 247.964 225.49 247.542 225.672 247.187C225.859 246.833 226.118 246.56 226.449 246.369C226.78 246.173 227.16 246.075 227.589 246.075C228.046 246.075 228.417 246.161 228.701 246.334C228.99 246.507 229.223 246.772 229.401 247.131L228.89 247.411C228.787 247.145 228.624 246.945 228.4 246.81C228.181 246.67 227.911 246.6 227.589 246.6C227.276 246.6 226.999 246.674 226.756 246.824C226.519 246.968 226.33 247.18 226.19 247.46C226.055 247.735 225.987 248.066 225.987 248.453C225.987 248.84 226.045 249.174 226.162 249.454C226.283 249.729 226.46 249.941 226.694 250.09C226.931 250.235 227.22 250.307 227.561 250.307C227.752 250.307 227.929 250.284 228.092 250.237C228.26 250.186 228.405 250.111 228.526 250.013C228.652 249.915 228.75 249.792 228.82 249.643C228.89 249.493 228.925 249.318 228.925 249.118V248.957H227.456V248.432H229.435V250.762H228.995L228.967 249.901L229.086 249.922C228.964 250.211 228.773 250.435 228.512 250.594C228.251 250.752 227.927 250.832 227.54 250.832ZM234.015 246.145V250.762H233.322L231.391 247.67L230.902 246.803H230.895L230.923 247.502V250.762H230.391V246.145H231.084L233.007 249.223L233.504 250.111H233.511L233.483 249.405V246.145H234.015Z" fill="white"/>
<path d="M264.193 205.357H259.137C258.381 205.357 257.768 205.97 257.768 206.726V210.94C257.768 211.696 258.381 212.309 259.137 212.309H264.193C264.949 212.309 265.562 211.696 265.562 210.94V206.726C265.562 205.97 264.949 205.357 264.193 205.357Z" fill="white"/>
<path d="M259.453 204.515V205.989" stroke="white" stroke-width="0.631993" stroke-linecap="round"/>
<path d="M264.088 204.515V205.989" stroke="white" stroke-width="0.631993" stroke-linecap="round"/>
<path d="M260.572 210.569V208.872C260.572 208.809 260.572 208.746 260.572 208.681C260.575 208.613 260.577 208.544 260.58 208.474C260.488 208.558 260.385 208.631 260.272 208.693C260.158 208.755 260.041 208.799 259.922 208.823L259.849 208.352C259.911 208.346 259.98 208.329 260.056 208.299C260.135 208.267 260.213 208.229 260.292 208.185C260.373 208.139 260.446 208.092 260.511 208.043C260.579 207.992 260.63 207.94 260.665 207.889H261.12V210.569H260.572ZM261.725 210.569V210.192C261.969 210.026 262.175 209.877 262.343 209.745C262.513 209.609 262.65 209.485 262.753 209.371C262.858 209.255 262.934 209.145 262.98 209.042C263.029 208.939 263.053 208.837 263.053 208.734C263.053 208.609 263.015 208.508 262.94 208.429C262.864 208.348 262.757 208.307 262.619 208.307C262.467 208.307 262.348 208.359 262.261 208.462C262.178 208.564 262.132 208.711 262.123 208.9L261.64 208.717C261.654 208.533 261.702 208.378 261.786 208.25C261.873 208.12 261.989 208.022 262.136 207.954C262.284 207.884 262.455 207.848 262.647 207.848C262.812 207.848 262.955 207.871 263.074 207.917C263.196 207.963 263.296 208.027 263.374 208.108C263.455 208.187 263.516 208.277 263.557 208.38C263.598 208.483 263.618 208.59 263.618 208.701C263.618 208.874 263.575 209.038 263.488 209.193C263.404 209.347 263.274 209.5 263.098 209.651C262.922 209.803 262.699 209.963 262.428 210.131V210.135C262.469 210.132 262.517 210.129 262.574 210.127C262.634 210.124 262.695 210.123 262.757 210.123C262.819 210.12 262.873 210.118 262.919 210.118H263.658V210.569H261.725Z" fill="black"/>
<path d="M200.563 214.603H203.099V215.244H199.818V210.646H200.563V214.603ZM205.314 211.691C205.653 211.691 205.952 211.763 206.212 211.907C206.473 212.051 206.675 212.26 206.819 212.534C206.967 212.803 207.042 213.126 207.042 213.502C207.042 213.879 206.967 214.204 206.819 214.478C206.675 214.747 206.473 214.954 206.212 215.098C205.952 215.242 205.653 215.314 205.314 215.314C204.975 215.314 204.675 215.242 204.415 215.098C204.155 214.954 203.951 214.747 203.802 214.478C203.653 214.204 203.579 213.879 203.579 213.502C203.579 213.126 203.653 212.803 203.802 212.534C203.951 212.26 204.155 212.051 204.415 211.907C204.675 211.763 204.975 211.691 205.314 211.691ZM205.314 212.276C205.105 212.276 204.926 212.325 204.777 212.422C204.633 212.515 204.522 212.652 204.443 212.833C204.364 213.015 204.324 213.238 204.324 213.502C204.324 213.762 204.364 213.985 204.443 214.171C204.522 214.352 204.633 214.492 204.777 214.589C204.926 214.682 205.105 214.728 205.314 214.728C205.523 214.728 205.699 214.682 205.843 214.589C205.987 214.492 206.099 214.352 206.178 214.171C206.257 213.985 206.296 213.762 206.296 213.502C206.296 213.238 206.257 213.015 206.178 212.833C206.099 212.652 205.987 212.515 205.843 212.422C205.699 212.325 205.523 212.276 205.314 212.276ZM209.986 213.008C209.986 212.775 209.921 212.597 209.791 212.471C209.665 212.341 209.491 212.276 209.268 212.276C209.059 212.276 208.881 212.325 208.732 212.422C208.583 212.52 208.474 212.678 208.404 212.896L207.777 212.631C207.866 212.348 208.038 212.121 208.293 211.949C208.553 211.777 208.888 211.691 209.296 211.691C209.575 211.691 209.821 211.737 210.035 211.83C210.248 211.919 210.416 212.053 210.536 212.234C210.662 212.415 210.724 212.648 210.724 212.931V214.485C210.724 214.656 210.81 214.742 210.982 214.742C211.066 214.742 211.147 214.731 211.226 214.708L211.184 215.223C211.077 215.274 210.943 215.3 210.78 215.3C210.632 215.3 210.497 215.274 210.376 215.223C210.26 215.167 210.167 215.086 210.097 214.979C210.032 214.868 210 214.731 210 214.568V214.519L210.153 214.512C210.111 214.694 210.025 214.845 209.895 214.965C209.765 215.081 209.614 215.17 209.443 215.23C209.271 215.286 209.097 215.314 208.92 215.314C208.702 215.314 208.504 215.279 208.328 215.209C208.156 215.14 208.019 215.035 207.917 214.896C207.819 214.752 207.771 214.575 207.771 214.366C207.771 214.106 207.854 213.892 208.021 213.725C208.193 213.558 208.435 213.444 208.746 213.384L210.097 213.119L210.09 213.642L209.108 213.844C208.913 213.881 208.767 213.934 208.669 214.004C208.572 214.074 208.523 214.176 208.523 214.31C208.523 214.441 208.572 214.545 208.669 214.624C208.771 214.698 208.906 214.735 209.073 214.735C209.189 214.735 209.301 214.722 209.408 214.694C209.519 214.666 209.619 214.622 209.707 214.561C209.796 214.496 209.863 214.415 209.909 214.317C209.96 214.215 209.986 214.094 209.986 213.955V213.008ZM211.946 215.244V211.761H212.608L212.656 212.666L212.559 212.569C212.624 212.369 212.717 212.204 212.838 212.074C212.963 211.939 213.109 211.842 213.277 211.781C213.448 211.721 213.629 211.691 213.82 211.691C214.066 211.691 214.287 211.74 214.482 211.837C214.681 211.93 214.839 212.072 214.956 212.262C215.072 212.453 215.13 212.694 215.13 212.987V215.244H214.384V213.217C214.384 212.873 214.312 212.636 214.168 212.506C214.029 212.371 213.852 212.304 213.639 212.304C213.486 212.304 213.337 212.341 213.193 212.415C213.049 212.485 212.928 212.599 212.831 212.757C212.738 212.915 212.691 213.126 212.691 213.391V215.244H211.946ZM218.434 215.244V214.701C218.876 214.385 219.245 214.106 219.542 213.865C219.844 213.623 220.085 213.4 220.267 213.196C220.448 212.991 220.578 212.799 220.657 212.618C220.74 212.432 220.782 212.244 220.782 212.053C220.782 211.807 220.706 211.607 220.552 211.454C220.399 211.301 220.185 211.224 219.911 211.224C219.623 211.224 219.393 211.322 219.222 211.517C219.054 211.707 218.959 211.97 218.936 212.304L218.288 212.004C218.321 211.712 218.406 211.459 218.546 211.245C218.685 211.031 218.873 210.867 219.11 210.75C219.352 210.634 219.63 210.576 219.946 210.576C220.206 210.576 220.434 210.613 220.629 210.688C220.829 210.762 220.996 210.867 221.13 211.001C221.265 211.131 221.367 211.285 221.437 211.461C221.511 211.638 221.549 211.826 221.549 212.025C221.549 212.318 221.477 212.601 221.333 212.875C221.189 213.145 220.961 213.421 220.65 213.704C220.339 213.988 219.93 214.292 219.424 214.617V214.631C219.479 214.622 219.556 214.617 219.654 214.617C219.751 214.612 219.849 214.61 219.946 214.61C220.044 214.605 220.123 214.603 220.183 214.603H221.632V215.244H218.434Z" fill="white"/>
<circle cx="185.993" cy="212.276" r="6.59811" fill="#D9D9D9"/>
<path d="M183.041 239.92C182.119 239.92 181.396 239.587 180.869 238.921C180.351 238.248 180.091 237.265 180.091 235.972C180.091 234.679 180.351 233.7 180.869 233.034C181.396 232.361 182.119 232.024 183.041 232.024C183.969 232.024 184.693 232.361 185.212 233.034C185.738 233.7 186.001 234.679 186.001 235.972C186.001 237.265 185.738 238.248 185.212 238.921C184.693 239.587 183.969 239.92 183.041 239.92ZM183.041 238.863C183.412 238.863 183.722 238.759 183.969 238.55C184.225 238.333 184.415 238.012 184.538 237.586C184.67 237.152 184.736 236.614 184.736 235.972C184.736 235.329 184.67 234.795 184.538 234.37C184.415 233.936 184.225 233.615 183.969 233.406C183.722 233.189 183.412 233.081 183.041 233.081C182.669 233.081 182.355 233.189 182.1 233.406C181.852 233.615 181.667 233.936 181.543 234.37C181.419 234.795 181.357 235.329 181.357 235.972C181.357 236.614 181.419 237.152 181.543 237.586C181.667 238.012 181.852 238.333 182.1 238.55C182.355 238.759 182.669 238.863 183.041 238.863ZM188.038 238.236C188.302 238.236 188.511 238.314 188.665 238.468C188.828 238.615 188.909 238.817 188.909 239.072C188.909 239.328 188.828 239.533 188.665 239.688C188.511 239.842 188.302 239.92 188.038 239.92C187.767 239.92 187.551 239.842 187.388 239.688C187.233 239.533 187.156 239.328 187.156 239.072C187.156 238.817 187.233 238.615 187.388 238.468C187.551 238.314 187.767 238.236 188.038 238.236ZM190.664 239.804V234.544C190.664 234.389 190.664 234.23 190.664 234.068C190.672 233.897 190.68 233.719 190.688 233.534C190.424 233.789 190.122 234.01 189.782 234.195C189.449 234.373 189.105 234.501 188.748 234.579L188.516 233.499C188.679 233.475 188.868 233.421 189.085 233.336C189.302 233.251 189.526 233.143 189.759 233.011C189.991 232.879 190.204 232.74 190.397 232.593C190.591 232.438 190.742 232.287 190.85 232.14H191.895V239.804H190.664ZM196.381 239.92C195.661 239.92 195.034 239.761 194.5 239.444C193.974 239.119 193.614 238.666 193.42 238.085L194.628 237.516C194.697 237.795 194.806 238.035 194.953 238.236C195.1 238.437 195.294 238.592 195.534 238.701C195.773 238.801 196.072 238.852 196.428 238.852C196.729 238.852 196.985 238.797 197.194 238.689C197.403 238.581 197.562 238.43 197.67 238.236C197.786 238.043 197.844 237.822 197.844 237.574C197.844 237.319 197.794 237.106 197.693 236.936C197.6 236.765 197.449 236.642 197.24 236.564C197.039 236.487 196.78 236.448 196.462 236.448C196.37 236.448 196.273 236.452 196.172 236.46C196.079 236.46 195.979 236.467 195.87 236.483V235.438C195.94 235.446 196.006 235.453 196.068 235.461C196.137 235.461 196.203 235.461 196.265 235.461C196.768 235.461 197.128 235.36 197.345 235.159C197.562 234.958 197.67 234.644 197.67 234.219C197.67 233.855 197.558 233.576 197.333 233.383C197.117 233.189 196.803 233.092 196.393 233.092C195.967 233.092 195.634 233.193 195.394 233.394C195.162 233.588 194.984 233.87 194.86 234.242L193.722 233.766C193.83 233.41 194.012 233.1 194.268 232.837C194.523 232.574 194.837 232.372 195.208 232.233C195.588 232.086 196.002 232.012 196.451 232.012C197 232.012 197.457 232.101 197.821 232.28C198.193 232.458 198.467 232.701 198.645 233.011C198.831 233.321 198.924 233.665 198.924 234.044C198.924 234.339 198.881 234.598 198.796 234.822C198.711 235.039 198.595 235.229 198.448 235.391C198.309 235.546 198.154 235.666 197.984 235.751C197.821 235.836 197.655 235.895 197.484 235.925V235.949C197.709 235.956 197.914 236.003 198.1 236.088C198.293 236.165 198.463 236.278 198.611 236.425C198.765 236.564 198.885 236.734 198.97 236.936C199.056 237.137 199.098 237.358 199.098 237.598C199.098 238.062 198.982 238.468 198.75 238.817C198.518 239.165 198.196 239.436 197.786 239.63C197.384 239.823 196.915 239.92 196.381 239.92ZM200.595 239.804V238.898C201.331 238.372 201.946 237.907 202.442 237.505C202.945 237.102 203.347 236.731 203.649 236.39C203.951 236.049 204.168 235.728 204.299 235.426C204.439 235.117 204.508 234.803 204.508 234.486C204.508 234.075 204.381 233.743 204.125 233.487C203.87 233.232 203.514 233.104 203.057 233.104C202.577 233.104 202.194 233.266 201.907 233.592C201.629 233.909 201.47 234.346 201.431 234.904L200.352 234.404C200.406 233.917 200.549 233.495 200.781 233.139C201.013 232.783 201.327 232.508 201.722 232.314C202.124 232.121 202.589 232.024 203.115 232.024C203.549 232.024 203.928 232.086 204.253 232.21C204.586 232.334 204.864 232.508 205.089 232.732C205.313 232.949 205.484 233.205 205.6 233.499C205.724 233.793 205.786 234.106 205.786 234.439C205.786 234.927 205.666 235.399 205.426 235.856C205.186 236.305 204.806 236.765 204.288 237.238C203.769 237.71 203.088 238.217 202.244 238.759V238.782C202.337 238.766 202.465 238.759 202.627 238.759C202.79 238.751 202.952 238.747 203.115 238.747C203.278 238.739 203.409 238.735 203.51 238.735H205.925V239.804H200.595ZM208.955 239.804V234.544C208.955 234.389 208.955 234.23 208.955 234.068C208.962 233.897 208.97 233.719 208.978 233.534C208.715 233.789 208.413 234.01 208.072 234.195C207.739 234.373 207.395 234.501 207.039 234.579L206.806 233.499C206.969 233.475 207.159 233.421 207.375 233.336C207.592 233.251 207.817 233.143 208.049 233.011C208.281 232.879 208.494 232.74 208.688 232.593C208.881 232.438 209.032 232.287 209.14 232.14H210.185V239.804H208.955Z" fill="white"/>
<defs>
<linearGradient id="paint0_linear_686_572" x1="157.75" y1="-1.22964e-08" x2="157.25" y2="422.5" gradientUnits="userSpaceOnUse">
<stop stop-color="#222222" stop-opacity="0"/>
<stop offset="1" stop-color="#222222"/>
</linearGradient>
<radialGradient id="paint1_radial_686_572" cx="0" cy="0" r="1" gradientUnits="userSpaceOnUse" gradientTransform="translate(106.874 382) rotate(0.740449) scale(77.3821 29.1397)">
<stop stop-color="white"/>
<stop offset="1" stop-color="white" stop-opacity="0.59"/>
</radialGradient>
</defs>
</svg>
